<?xml version="1.0" standalone="no"?>
<!DOCTYPE svg PUBLIC "-//W3C//DTD SVG 1.1//EN"
  "http://www.w3.org/Graphics/SVG/1.1/DTD/svg11.dtd">
<!-- Created with matplotlib (http://matplotlib.sourceforge.net/) -->
<svg width="1152pt" height="608pt" viewBox="0 0 1152 608"
   xmlns="http://www.w3.org/2000/svg"
   xmlns:xlink="http://www.w3.org/1999/xlink"
   version="1.1"
   id="svg1">
<g id="figure1">
<g id="patch1">
<path style="fill: #ffffff; stroke: #ffffff; stroke-width: 1.000000; stroke-linejoin: round; stroke-linecap: square;  opacity: 1.000000"  d="M0.000000 608.400000L1152.000000 608.400000L1152.000000 0.000000
L0.000000 0.000000L0.000000 608.400000"/>
</g>
<g id="axes1">
<g id="patch2">
<path style="fill: #ffffff; opacity: 1.000000"  d="M144.000000 547.560000L549.818182 547.560000L549.818182 60.840000
L144.000000 60.840000L144.000000 547.560000"/>
</g>
<g id="line2d1">
<defs>
  <clipPath id="p3b0805a595bec618a340db483b27dc4b">
<rect x="144.000000" y="60.840000" width="405.818182" height="486.720000"/>
  </clipPath>
</defs><path style="fill: none; stroke: #0000ff; stroke-width: 1.000000; stroke-linejoin: round; stroke-linecap: square;  opacity: 1.000000" clip-path="url(#p3b0805a595bec618a340db483b27dc4b)" d="M144.000000 143.621441L194.727273 181.811898L245.454545 284.255099
L296.181818 319.050463L346.909091 342.695778L397.636364 360.645530
L448.363636 374.860753L499.090909 384.432520L549.818182 389.593707"/>
</g>
<g id="line2d2">
<path style="fill: none; stroke: #008000; stroke-width: 1.000000; stroke-linejoin: round; stroke-linecap: square;  opacity: 1.000000" clip-path="url(#p3b0805a595bec618a340db483b27dc4b)" d="M144.000000 151.170276L194.727273 191.360601L245.454545 304.350941
L296.181818 346.269461L346.909091 377.016403L397.636364 406.209124
L448.363636 435.062996L499.090909 460.765313L549.818182 478.828107"/>
</g>
<g id="line2d3">
<path style="fill: none; stroke: #ff0000; stroke-width: 1.000000; stroke-linejoin: round; stroke-linecap: square;  opacity: 1.000000" clip-path="url(#p3b0805a595bec618a340db483b27dc4b)" d="M144.000000 137.725713L194.727273 174.724167L245.454545 277.833399
L296.181818 315.479963L346.909091 344.082201L397.636364 371.042061
L448.363636 397.419949L499.090909 420.778560L549.818182 435.949344"/>
</g>
<g id="line2d4">
<path style="fill: none; stroke: #00bfbf; stroke-width: 1.000000; stroke-linejoin: round; stroke-linecap: square;  opacity: 1.000000" clip-path="url(#p3b0805a595bec618a340db483b27dc4b)" d="M144.000000 137.718478L194.727273 174.740184L245.454545 277.824546
L296.181818 315.605170L346.909091 344.173267L397.636364 371.161062
L448.363636 397.342279L499.090909 420.725136L549.818182 437.006269"/>
</g>
<g id="line2d5">
<path style="fill: none; stroke: #bf00bf; stroke-width: 1.000000; stroke-linejoin: round; stroke-linecap: square;  opacity: 1.000000" clip-path="url(#p3b0805a595bec618a340db483b27dc4b)" d="M144.000000 145.449830L194.727273 184.167583L245.454545 293.190251
L296.181818 330.883270L346.909091 357.840424L397.636364 384.157586
L448.363636 410.492250L499.090909 433.258159L549.818182 462.237669"/>
</g>
<g id="line2d6">
<path style="fill: none; stroke: #bfbf00; stroke-width: 1.000000; stroke-linejoin: round; stroke-linecap: square;  opacity: 1.000000" clip-path="url(#p3b0805a595bec618a340db483b27dc4b)" d="M144.000000 145.381150L194.727273 184.104376L245.454545 293.344656
L296.181818 331.035805L346.909091 358.063530L397.636364 384.122784
L448.363636 410.354304L499.090909 433.404492L549.818182 460.165558"/>
</g>
<g id="line2d7">
<path style="fill: none; stroke: #000000; stroke-width: 1.000000; stroke-linejoin: round; stroke-linecap: square;  opacity: 1.000000" clip-path="url(#p3b0805a595bec618a340db483b27dc4b)" d="M144.000000 165.601077L194.727273 208.830498L245.454545 341.884481
L296.181818 388.980210L346.909091 419.896870L397.636364 447.410417
L448.363636 472.412273L499.090909 494.420857L549.818182 515.549211"/>
</g>
<g id="matplotlib.axis1">
<g id="xtick1">
<g id="line2d8">
<defs><path id="m30e32995789d870ad79a2e54c91cf9c6" d="M0.000000 0.000000L0.000000 -4.000000"/></defs>
<g ><use style="fill: none; stroke: #000000; stroke-width: 0.500000; stroke-linejoin: round; stroke-linecap: butt;  opacity: 1.000000" xlink:href="#m30e32995789d870ad79a2e54c91cf9c6" x="144.000000" y="547.560000"/>
</g></g>
<g id="line2d9">
<defs><path id="m9281cae24120827b11d5ea8a7ad3e96b" d="M0.000000 0.000000L0.000000 4.000000"/></defs>
<g ><use style="fill: none; stroke: #000000; stroke-width: 0.500000; stroke-linejoin: round; stroke-linecap: butt;  opacity: 1.000000" xlink:href="#m9281cae24120827b11d5ea8a7ad3e96b" x="144.000000" y="60.840000"/>
</g></g>
<g id="text1">
<defs>
<path id="c_7a2040fe3b94fcd41d0a72c84e93b115" d="M31.781250 -66.406250q-7.609375 0.000000 -11.453125 7.500000q-3.828125 7.484375 -3.828125 22.531250q0.000000 14.984375 3.828125 22.484375q3.843750 7.500000 11.453125 7.500000q7.671875 0.000000 11.500000 -7.500000q3.843750 -7.500000 3.843750 -22.484375q0.000000 -15.046875 -3.843750 -22.531250q-3.828125 -7.500000 -11.500000 -7.500000M31.781250 -74.218750q12.265625 0.000000 18.734375 9.703125q6.468750 9.687500 6.468750 28.140625q0.000000 18.406250 -6.468750 28.109375q-6.468750 9.687500 -18.734375 9.687500q-12.250000 0.000000 -18.718750 -9.687500q-6.468750 -9.703125 -6.468750 -28.109375q0.000000 -18.453125 6.468750 -28.140625q6.468750 -9.703125 18.718750 -9.703125"/>
</defs>
<g style="fill: #000000; opacity: 1.000000" transform="translate(140.976562,560.466250)scale(0.120000)">
<use xlink:href="#c_7a2040fe3b94fcd41d0a72c84e93b115"/>
</g>
</g>
</g>
<g id="xtick2">
<g id="line2d10">
<g ><use style="fill: none; stroke: #000000; stroke-width: 0.500000; stroke-linejoin: round; stroke-linecap: butt;  opacity: 1.000000" xlink:href="#m30e32995789d870ad79a2e54c91cf9c6" x="194.727273" y="547.560000"/>
</g></g>
<g id="line2d11">
<g ><use style="fill: none; stroke: #000000; stroke-width: 0.500000; stroke-linejoin: round; stroke-linecap: butt;  opacity: 1.000000" xlink:href="#m9281cae24120827b11d5ea8a7ad3e96b" x="194.727273" y="60.840000"/>
</g></g>
<g id="text2">
<defs>
<path id="c_42baa63129a918535c52adb20d687ea7" d="M12.406250 -8.296875l16.109375 0.000000l0.000000 -55.625000l-17.531250 3.515625l0.000000 -8.984375l17.437500 -3.515625l9.859375 0.000000l0.000000 64.609375l16.109375 0.000000l0.000000 8.296875l-41.984375 0.000000z"/>
</defs>
<g style="fill: #000000; opacity: 1.000000" transform="translate(192.117898,560.310000)scale(0.120000)">
<use xlink:href="#c_42baa63129a918535c52adb20d687ea7"/>
</g>
</g>
</g>
<g id="xtick3">
<g id="line2d12">
<g ><use style="fill: none; stroke: #000000; stroke-width: 0.500000; stroke-linejoin: round; stroke-linecap: butt;  opacity: 1.000000" xlink:href="#m30e32995789d870ad79a2e54c91cf9c6" x="245.454545" y="547.560000"/>
</g></g>
<g id="line2d13">
<g ><use style="fill: none; stroke: #000000; stroke-width: 0.500000; stroke-linejoin: round; stroke-linecap: butt;  opacity: 1.000000" xlink:href="#m9281cae24120827b11d5ea8a7ad3e96b" x="245.454545" y="60.840000"/>
</g></g>
<g id="text3">
<defs>
<path id="c_ed3f3ed3ebfbd18bcb9c012009a68ad1" d="M19.187500 -8.296875l34.421875 0.000000l0.000000 8.296875l-46.281250 0.000000l0.000000 -8.296875q5.609375 -5.812500 15.296875 -15.593750q9.703125 -9.796875 12.187500 -12.640625q4.734375 -5.312500 6.609375 -9.000000q1.890625 -3.687500 1.890625 -7.250000q0.000000 -5.812500 -4.078125 -9.468750q-4.078125 -3.671875 -10.625000 -3.671875q-4.640625 0.000000 -9.796875 1.609375q-5.140625 1.609375 -11.000000 4.890625l0.000000 -9.968750q5.953125 -2.390625 11.125000 -3.609375q5.187500 -1.218750 9.484375 -1.218750q11.328125 0.000000 18.062500 5.671875q6.734375 5.656250 6.734375 15.125000q0.000000 4.500000 -1.687500 8.531250q-1.671875 4.015625 -6.125000 9.484375q-1.218750 1.421875 -7.765625 8.187500q-6.531250 6.765625 -18.453125 18.921875"/>
</defs>
<g style="fill: #000000; opacity: 1.000000" transform="translate(242.673295,560.466250)scale(0.120000)">
<use xlink:href="#c_ed3f3ed3ebfbd18bcb9c012009a68ad1"/>
</g>
</g>
</g>
<g id="xtick4">
<g id="line2d14">
<g ><use style="fill: none; stroke: #000000; stroke-width: 0.500000; stroke-linejoin: round; stroke-linecap: butt;  opacity: 1.000000" xlink:href="#m30e32995789d870ad79a2e54c91cf9c6" x="296.181818" y="547.560000"/>
</g></g>
<g id="line2d15">
<g ><use style="fill: none; stroke: #000000; stroke-width: 0.500000; stroke-linejoin: round; stroke-linecap: butt;  opacity: 1.000000" xlink:href="#m9281cae24120827b11d5ea8a7ad3e96b" x="296.181818" y="60.840000"/>
</g></g>
<g id="text4">
<defs>
<path id="c_3dcfa38a02242cb63ec6726c6e70be7a" d="M40.578125 -39.312500q7.078125 1.515625 11.046875 6.312500q3.984375 4.781250 3.984375 11.812500q0.000000 10.781250 -7.421875 16.703125q-7.421875 5.906250 -21.093750 5.906250q-4.578125 0.000000 -9.437500 -0.906250q-4.859375 -0.906250 -10.031250 -2.718750l0.000000 -9.515625q4.093750 2.390625 8.968750 3.609375q4.890625 1.218750 10.218750 1.218750q9.265625 0.000000 14.125000 -3.656250q4.859375 -3.656250 4.859375 -10.640625q0.000000 -6.453125 -4.515625 -10.078125q-4.515625 -3.640625 -12.562500 -3.640625l-8.500000 0.000000l0.000000 -8.109375l8.890625 0.000000q7.265625 0.000000 11.125000 -2.906250q3.859375 -2.906250 3.859375 -8.375000q0.000000 -5.609375 -3.984375 -8.609375q-3.968750 -3.015625 -11.390625 -3.015625q-4.062500 0.000000 -8.703125 0.890625q-4.640625 0.875000 -10.203125 2.718750l0.000000 -8.781250q5.625000 -1.562500 10.531250 -2.343750q4.906250 -0.781250 9.250000 -0.781250q11.234375 0.000000 17.765625 5.109375q6.546875 5.093750 6.546875 13.781250q0.000000 6.062500 -3.468750 10.234375q-3.468750 4.171875 -9.859375 5.781250"/>
</defs>
<g style="fill: #000000; opacity: 1.000000" transform="translate(293.306818,560.466250)scale(0.120000)">
<use xlink:href="#c_3dcfa38a02242cb63ec6726c6e70be7a"/>
</g>
</g>
</g>
<g id="xtick5">
<g id="line2d16">
<g ><use style="fill: none; stroke: #000000; stroke-width: 0.500000; stroke-linejoin: round; stroke-linecap: butt;  opacity: 1.000000" xlink:href="#m30e32995789d870ad79a2e54c91cf9c6" x="346.909091" y="547.560000"/>
</g></g>
<g id="line2d17">
<g ><use style="fill: none; stroke: #000000; stroke-width: 0.500000; stroke-linejoin: round; stroke-linecap: butt;  opacity: 1.000000" xlink:href="#m9281cae24120827b11d5ea8a7ad3e96b" x="346.909091" y="60.840000"/>
</g></g>
<g id="text5">
<defs>
<path id="c_a0416418d96557a09b8c1332d34883ba" d="M37.796875 -64.312500l-24.906250 38.921875l24.906250 0.000000zM35.203125 -72.906250l12.406250 0.000000l0.000000 47.515625l10.406250 0.000000l0.000000 8.203125l-10.406250 0.000000l0.000000 17.187500l-9.812500 0.000000l0.000000 -17.187500l-32.906250 0.000000l0.000000 -9.515625z"/>
</defs>
<g style="fill: #000000; opacity: 1.000000" transform="translate(343.721591,560.310000)scale(0.120000)">
<use xlink:href="#c_a0416418d96557a09b8c1332d34883ba"/>
</g>
</g>
</g>
<g id="xtick6">
<g id="line2d18">
<g ><use style="fill: none; stroke: #000000; stroke-width: 0.500000; stroke-linejoin: round; stroke-linecap: butt;  opacity: 1.000000" xlink:href="#m30e32995789d870ad79a2e54c91cf9c6" x="397.636364" y="547.560000"/>
</g></g>
<g id="line2d19">
<g ><use style="fill: none; stroke: #000000; stroke-width: 0.500000; stroke-linejoin: round; stroke-linecap: butt;  opacity: 1.000000" xlink:href="#m9281cae24120827b11d5ea8a7ad3e96b" x="397.636364" y="60.840000"/>
</g></g>
<g id="text6">
<defs>
<path id="c_1260a2df50f305f3db244e29828f968e" d="M10.796875 -72.906250l38.718750 0.000000l0.000000 8.312500l-29.687500 0.000000l0.000000 17.859375q2.140625 -0.734375 4.281250 -1.093750q2.156250 -0.359375 4.312500 -0.359375q12.203125 0.000000 19.328125 6.687500q7.140625 6.687500 7.140625 18.109375q0.000000 11.765625 -7.328125 18.296875q-7.328125 6.515625 -20.656250 6.515625q-4.593750 0.000000 -9.359375 -0.781250q-4.750000 -0.781250 -9.828125 -2.343750l0.000000 -9.921875q4.390625 2.390625 9.078125 3.562500q4.687500 1.171875 9.906250 1.171875q8.453125 0.000000 13.375000 -4.437500q4.937500 -4.437500 4.937500 -12.062500q0.000000 -7.609375 -4.937500 -12.046875q-4.921875 -4.453125 -13.375000 -4.453125q-3.953125 0.000000 -7.890625 0.875000q-3.921875 0.875000 -8.015625 2.734375z"/>
</defs>
<g style="fill: #000000; opacity: 1.000000" transform="translate(394.800426,560.310000)scale(0.120000)">
<use xlink:href="#c_1260a2df50f305f3db244e29828f968e"/>
</g>
</g>
</g>
<g id="xtick7">
<g id="line2d20">
<g ><use style="fill: none; stroke: #000000; stroke-width: 0.500000; stroke-linejoin: round; stroke-linecap: butt;  opacity: 1.000000" xlink:href="#m30e32995789d870ad79a2e54c91cf9c6" x="448.363636" y="547.560000"/>
</g></g>
<g id="line2d21">
<g ><use style="fill: none; stroke: #000000; stroke-width: 0.500000; stroke-linejoin: round; stroke-linecap: butt;  opacity: 1.000000" xlink:href="#m9281cae24120827b11d5ea8a7ad3e96b" x="448.363636" y="60.840000"/>
</g></g>
<g id="text7">
<defs>
<path id="c_cc8d6d580d1b10c8632f7a42cd53db8a" d="M33.015625 -40.375000q-6.640625 0.000000 -10.531250 4.546875q-3.875000 4.531250 -3.875000 12.437500q0.000000 7.859375 3.875000 12.437500q3.890625 4.562500 10.531250 4.562500q6.640625 0.000000 10.515625 -4.562500q3.875000 -4.578125 3.875000 -12.437500q0.000000 -7.906250 -3.875000 -12.437500q-3.875000 -4.546875 -10.515625 -4.546875M52.593750 -71.296875l0.000000 8.984375q-3.718750 -1.750000 -7.500000 -2.671875q-3.781250 -0.937500 -7.500000 -0.937500q-9.765625 0.000000 -14.921875 6.593750q-5.140625 6.593750 -5.875000 19.921875q2.875000 -4.250000 7.218750 -6.515625q4.359375 -2.265625 9.578125 -2.265625q10.984375 0.000000 17.359375 6.671875q6.375000 6.656250 6.375000 18.125000q0.000000 11.234375 -6.640625 18.031250q-6.640625 6.781250 -17.671875 6.781250q-12.656250 0.000000 -19.343750 -9.687500q-6.687500 -9.703125 -6.687500 -28.109375q0.000000 -17.281250 8.203125 -27.562500q8.203125 -10.281250 22.015625 -10.281250q3.718750 0.000000 7.500000 0.734375q3.781250 0.734375 7.890625 2.187500"/>
</defs>
<g style="fill: #000000; opacity: 1.000000" transform="translate(445.348011,560.466250)scale(0.120000)">
<use xlink:href="#c_cc8d6d580d1b10c8632f7a42cd53db8a"/>
</g>
</g>
</g>
<g id="xtick8">
<g id="line2d22">
<g ><use style="fill: none; stroke: #000000; stroke-width: 0.500000; stroke-linejoin: round; stroke-linecap: butt;  opacity: 1.000000" xlink:href="#m30e32995789d870ad79a2e54c91cf9c6" x="499.090909" y="547.560000"/>
</g></g>
<g id="line2d23">
<g ><use style="fill: none; stroke: #000000; stroke-width: 0.500000; stroke-linejoin: round; stroke-linecap: butt;  opacity: 1.000000" xlink:href="#m9281cae24120827b11d5ea8a7ad3e96b" x="499.090909" y="60.840000"/>
</g></g>
<g id="text8">
<defs>
<path id="c_956f18cfdaf972f35a6c2b4aaac2532b" d="M8.203125 -72.906250l46.875000 0.000000l0.000000 4.203125l-26.468750 68.703125l-10.296875 0.000000l24.906250 -64.593750l-35.015625 0.000000z"/>
</defs>
<g style="fill: #000000; opacity: 1.000000" transform="translate(496.278409,560.310000)scale(0.120000)">
<use xlink:href="#c_956f18cfdaf972f35a6c2b4aaac2532b"/>
</g>
</g>
</g>
<g id="xtick9">
<g id="line2d24">
<g ><use style="fill: none; stroke: #000000; stroke-width: 0.500000; stroke-linejoin: round; stroke-linecap: butt;  opacity: 1.000000" xlink:href="#m30e32995789d870ad79a2e54c91cf9c6" x="549.818182" y="547.560000"/>
</g></g>
<g id="line2d25">
<g ><use style="fill: none; stroke: #000000; stroke-width: 0.500000; stroke-linejoin: round; stroke-linecap: butt;  opacity: 1.000000" xlink:href="#m9281cae24120827b11d5ea8a7ad3e96b" x="549.818182" y="60.840000"/>
</g></g>
<g id="text9">
<defs>
<path id="c_bef35738d52871942e50b9de9b122bab" d="M31.781250 -34.625000q-7.031250 0.000000 -11.062500 3.765625q-4.015625 3.765625 -4.015625 10.343750q0.000000 6.593750 4.015625 10.359375q4.031250 3.765625 11.062500 3.765625q7.031250 0.000000 11.078125 -3.781250q4.062500 -3.796875 4.062500 -10.343750q0.000000 -6.578125 -4.031250 -10.343750q-4.015625 -3.765625 -11.109375 -3.765625M21.921875 -38.812500q-6.343750 -1.562500 -9.890625 -5.906250q-3.531250 -4.359375 -3.531250 -10.609375q0.000000 -8.734375 6.218750 -13.812500q6.234375 -5.078125 17.062500 -5.078125q10.890625 0.000000 17.093750 5.078125q6.203125 5.078125 6.203125 13.812500q0.000000 6.250000 -3.546875 10.609375q-3.531250 4.343750 -9.828125 5.906250q7.125000 1.656250 11.093750 6.500000q3.984375 4.828125 3.984375 11.796875q0.000000 10.609375 -6.468750 16.281250q-6.468750 5.656250 -18.531250 5.656250q-12.046875 0.000000 -18.531250 -5.656250q-6.468750 -5.671875 -6.468750 -16.281250q0.000000 -6.968750 4.000000 -11.796875q4.015625 -4.843750 11.140625 -6.500000M18.312500 -54.390625q0.000000 5.656250 3.531250 8.828125q3.546875 3.171875 9.937500 3.171875q6.359375 0.000000 9.937500 -3.171875q3.593750 -3.171875 3.593750 -8.828125q0.000000 -5.671875 -3.593750 -8.843750q-3.578125 -3.171875 -9.937500 -3.171875q-6.390625 0.000000 -9.937500 3.171875q-3.531250 3.171875 -3.531250 8.843750"/>
</defs>
<g style="fill: #000000; opacity: 1.000000" transform="translate(546.818182,560.466250)scale(0.120000)">
<use xlink:href="#c_bef35738d52871942e50b9de9b122bab"/>
</g>
</g>
</g>
</g>
<g id="matplotlib.axis2">
<g id="ytick1">
<g id="line2d26">
<defs><path id="m3400efa6b1638b3fea9e19e898273957" d="M0.000000 0.000000L4.000000 0.000000"/></defs>
<g ><use style="fill: none; stroke: #000000; stroke-width: 0.500000; stroke-linejoin: round; stroke-linecap: butt;  opacity: 1.000000" xlink:href="#m3400efa6b1638b3fea9e19e898273957" x="144.000000" y="547.560000"/>
</g></g>
<g id="line2d27">
<defs><path id="m20b58b2501143cb5e0a5e8f1ef6f1643" d="M0.000000 0.000000L-4.000000 0.000000"/></defs>
<g ><use style="fill: none; stroke: #000000; stroke-width: 0.500000; stroke-linejoin: round; stroke-linecap: butt;  opacity: 1.000000" xlink:href="#m20b58b2501143cb5e0a5e8f1ef6f1643" x="549.818182" y="547.560000"/>
</g></g>
<g id="text10">
<defs>
<path id="c_6a8d56c819c37117ab4cf023bec22a5a" d="M10.593750 -35.500000l62.593750 0.000000l0.000000 8.296875l-62.593750 0.000000z"/>
</defs>
<g style="fill: #000000; opacity: 1.000000" transform="translate(86.156250,551.927187)scale(0.120000)">
<use xlink:href="#c_6a8d56c819c37117ab4cf023bec22a5a"/>
<use xlink:href="#c_42baa63129a918535c52adb20d687ea7" x="83.789062"/>
<use xlink:href="#c_a0416418d96557a09b8c1332d34883ba" x="147.412109"/>
<use xlink:href="#c_7a2040fe3b94fcd41d0a72c84e93b115" x="211.035156"/>
<use xlink:href="#c_7a2040fe3b94fcd41d0a72c84e93b115" x="274.658203"/>
<use xlink:href="#c_7a2040fe3b94fcd41d0a72c84e93b115" x="338.281250"/>
<use xlink:href="#c_7a2040fe3b94fcd41d0a72c84e93b115" x="401.904297"/>
</g>
</g>
</g>
<g id="ytick2">
<g id="line2d28">
<g ><use style="fill: none; stroke: #000000; stroke-width: 0.500000; stroke-linejoin: round; stroke-linecap: butt;  opacity: 1.000000" xlink:href="#m3400efa6b1638b3fea9e19e898273957" x="144.000000" y="466.440000"/>
</g></g>
<g id="line2d29">
<g ><use style="fill: none; stroke: #000000; stroke-width: 0.500000; stroke-linejoin: round; stroke-linecap: butt;  opacity: 1.000000" xlink:href="#m20b58b2501143cb5e0a5e8f1ef6f1643" x="549.818182" y="466.440000"/>
</g></g>
<g id="text11">
<g style="fill: #000000; opacity: 1.000000" transform="translate(86.156250,470.807187)scale(0.120000)">
<use xlink:href="#c_6a8d56c819c37117ab4cf023bec22a5a"/>
<use xlink:href="#c_42baa63129a918535c52adb20d687ea7" x="83.789062"/>
<use xlink:href="#c_ed3f3ed3ebfbd18bcb9c012009a68ad1" x="147.412109"/>
<use xlink:href="#c_7a2040fe3b94fcd41d0a72c84e93b115" x="211.035156"/>
<use xlink:href="#c_7a2040fe3b94fcd41d0a72c84e93b115" x="274.658203"/>
<use xlink:href="#c_7a2040fe3b94fcd41d0a72c84e93b115" x="338.281250"/>
<use xlink:href="#c_7a2040fe3b94fcd41d0a72c84e93b115" x="401.904297"/>
</g>
</g>
</g>
<g id="ytick3">
<g id="line2d30">
<g ><use style="fill: none; stroke: #000000; stroke-width: 0.500000; stroke-linejoin: round; stroke-linecap: butt;  opacity: 1.000000" xlink:href="#m3400efa6b1638b3fea9e19e898273957" x="144.000000" y="385.320000"/>
</g></g>
<g id="line2d31">
<g ><use style="fill: none; stroke: #000000; stroke-width: 0.500000; stroke-linejoin: round; stroke-linecap: butt;  opacity: 1.000000" xlink:href="#m20b58b2501143cb5e0a5e8f1ef6f1643" x="549.818182" y="385.320000"/>
</g></g>
<g id="text12">
<g style="fill: #000000; opacity: 1.000000" transform="translate(86.156250,389.687187)scale(0.120000)">
<use xlink:href="#c_6a8d56c819c37117ab4cf023bec22a5a"/>
<use xlink:href="#c_42baa63129a918535c52adb20d687ea7" x="83.789062"/>
<use xlink:href="#c_7a2040fe3b94fcd41d0a72c84e93b115" x="147.412109"/>
<use xlink:href="#c_7a2040fe3b94fcd41d0a72c84e93b115" x="211.035156"/>
<use xlink:href="#c_7a2040fe3b94fcd41d0a72c84e93b115" x="274.658203"/>
<use xlink:href="#c_7a2040fe3b94fcd41d0a72c84e93b115" x="338.281250"/>
<use xlink:href="#c_7a2040fe3b94fcd41d0a72c84e93b115" x="401.904297"/>
</g>
</g>
</g>
<g id="ytick4">
<g id="line2d32">
<g ><use style="fill: none; stroke: #000000; stroke-width: 0.500000; stroke-linejoin: round; stroke-linecap: butt;  opacity: 1.000000" xlink:href="#m3400efa6b1638b3fea9e19e898273957" x="144.000000" y="304.200000"/>
</g></g>
<g id="line2d33">
<g ><use style="fill: none; stroke: #000000; stroke-width: 0.500000; stroke-linejoin: round; stroke-linecap: butt;  opacity: 1.000000" xlink:href="#m20b58b2501143cb5e0a5e8f1ef6f1643" x="549.818182" y="304.200000"/>
</g></g>
<g id="text13">
<g style="fill: #000000; opacity: 1.000000" transform="translate(93.796875,308.567187)scale(0.120000)">
<use xlink:href="#c_6a8d56c819c37117ab4cf023bec22a5a"/>
<use xlink:href="#c_bef35738d52871942e50b9de9b122bab" x="83.789062"/>
<use xlink:href="#c_7a2040fe3b94fcd41d0a72c84e93b115" x="147.412109"/>
<use xlink:href="#c_7a2040fe3b94fcd41d0a72c84e93b115" x="211.035156"/>
<use xlink:href="#c_7a2040fe3b94fcd41d0a72c84e93b115" x="274.658203"/>
<use xlink:href="#c_7a2040fe3b94fcd41d0a72c84e93b115" x="338.281250"/>
</g>
</g>
</g>
<g id="ytick5">
<g id="line2d34">
<g ><use style="fill: none; stroke: #000000; stroke-width: 0.500000; stroke-linejoin: round; stroke-linecap: butt;  opacity: 1.000000" xlink:href="#m3400efa6b1638b3fea9e19e898273957" x="144.000000" y="223.080000"/>
</g></g>
<g id="line2d35">
<g ><use style="fill: none; stroke: #000000; stroke-width: 0.500000; stroke-linejoin: round; stroke-linecap: butt;  opacity: 1.000000" xlink:href="#m20b58b2501143cb5e0a5e8f1ef6f1643" x="549.818182" y="223.080000"/>
</g></g>
<g id="text14">
<g style="fill: #000000; opacity: 1.000000" transform="translate(93.796875,227.447187)scale(0.120000)">
<use xlink:href="#c_6a8d56c819c37117ab4cf023bec22a5a"/>
<use xlink:href="#c_cc8d6d580d1b10c8632f7a42cd53db8a" x="83.789062"/>
<use xlink:href="#c_7a2040fe3b94fcd41d0a72c84e93b115" x="147.412109"/>
<use xlink:href="#c_7a2040fe3b94fcd41d0a72c84e93b115" x="211.035156"/>
<use xlink:href="#c_7a2040fe3b94fcd41d0a72c84e93b115" x="274.658203"/>
<use xlink:href="#c_7a2040fe3b94fcd41d0a72c84e93b115" x="338.281250"/>
</g>
</g>
</g>
<g id="ytick6">
<g id="line2d36">
<g ><use style="fill: none; stroke: #000000; stroke-width: 0.500000; stroke-linejoin: round; stroke-linecap: butt;  opacity: 1.000000" xlink:href="#m3400efa6b1638b3fea9e19e898273957" x="144.000000" y="141.960000"/>
</g></g>
<g id="line2d37">
<g ><use style="fill: none; stroke: #000000; stroke-width: 0.500000; stroke-linejoin: round; stroke-linecap: butt;  opacity: 1.000000" xlink:href="#m20b58b2501143cb5e0a5e8f1ef6f1643" x="549.818182" y="141.960000"/>
</g></g>
<g id="text15">
<g style="fill: #000000; opacity: 1.000000" transform="translate(93.796875,146.327187)scale(0.120000)">
<use xlink:href="#c_6a8d56c819c37117ab4cf023bec22a5a"/>
<use xlink:href="#c_a0416418d96557a09b8c1332d34883ba" x="83.789062"/>
<use xlink:href="#c_7a2040fe3b94fcd41d0a72c84e93b115" x="147.412109"/>
<use xlink:href="#c_7a2040fe3b94fcd41d0a72c84e93b115" x="211.035156"/>
<use xlink:href="#c_7a2040fe3b94fcd41d0a72c84e93b115" x="274.658203"/>
<use xlink:href="#c_7a2040fe3b94fcd41d0a72c84e93b115" x="338.281250"/>
</g>
</g>
</g>
<g id="ytick7">
<g id="line2d38">
<g ><use style="fill: none; stroke: #000000; stroke-width: 0.500000; stroke-linejoin: round; stroke-linecap: butt;  opacity: 1.000000" xlink:href="#m3400efa6b1638b3fea9e19e898273957" x="144.000000" y="60.840000"/>
</g></g>
<g id="line2d39">
<g ><use style="fill: none; stroke: #000000; stroke-width: 0.500000; stroke-linejoin: round; stroke-linecap: butt;  opacity: 1.000000" xlink:href="#m20b58b2501143cb5e0a5e8f1ef6f1643" x="549.818182" y="60.840000"/>
</g></g>
<g id="text16">
<g style="fill: #000000; opacity: 1.000000" transform="translate(93.796875,65.207187)scale(0.120000)">
<use xlink:href="#c_6a8d56c819c37117ab4cf023bec22a5a"/>
<use xlink:href="#c_ed3f3ed3ebfbd18bcb9c012009a68ad1" x="83.789062"/>
<use xlink:href="#c_7a2040fe3b94fcd41d0a72c84e93b115" x="147.412109"/>
<use xlink:href="#c_7a2040fe3b94fcd41d0a72c84e93b115" x="211.035156"/>
<use xlink:href="#c_7a2040fe3b94fcd41d0a72c84e93b115" x="274.658203"/>
<use xlink:href="#c_7a2040fe3b94fcd41d0a72c84e93b115" x="338.281250"/>
</g>
</g>
</g>
</g>
<g id="patch3">
<path style="fill: none; stroke: #000000; stroke-width: 1.000000; stroke-linejoin: round; stroke-linecap: square;  opacity: 1.000000"  d="M144.000000 60.840000L549.818182 60.840000"/>
</g>
<g id="patch4">
<path style="fill: none; stroke: #000000; stroke-width: 1.000000; stroke-linejoin: round; stroke-linecap: square;  opacity: 1.000000"  d="M549.818182 547.560000L549.818182 60.840000"/>
</g>
<g id="patch5">
<path style="fill: none; stroke: #000000; stroke-width: 1.000000; stroke-linejoin: round; stroke-linecap: square;  opacity: 1.000000"  d="M144.000000 547.560000L549.818182 547.560000"/>
</g>
<g id="patch6">
<path style="fill: none; stroke: #000000; stroke-width: 1.000000; stroke-linejoin: round; stroke-linecap: square;  opacity: 1.000000"  d="M144.000000 547.560000L144.000000 60.840000"/>
</g>
<g id="text17">
<defs>
<path id="c_518d586bee075aa0153eaebfcb5ab11f" d="M19.671875 -64.796875l0.000000 27.390625l12.406250 0.000000q6.890625 0.000000 10.640625 -3.562500q3.765625 -3.562500 3.765625 -10.156250q0.000000 -6.546875 -3.765625 -10.109375q-3.750000 -3.562500 -10.640625 -3.562500zM9.812500 -72.906250l22.265625 0.000000q12.265625 0.000000 18.531250 5.546875q6.281250 5.546875 6.281250 16.234375q0.000000 10.796875 -6.281250 16.312500q-6.265625 5.515625 -18.531250 5.515625l-12.406250 0.000000l0.000000 29.296875l-9.859375 0.000000z"/>
<path id="c_b672e4bee30772019085dff1098f516d" d="M53.515625 -70.515625l0.000000 9.625000q-5.609375 -2.687500 -10.593750 -4.000000q-4.984375 -1.328125 -9.625000 -1.328125q-8.046875 0.000000 -12.421875 3.125000q-4.375000 3.125000 -4.375000 8.890625q0.000000 4.843750 2.906250 7.312500q2.906250 2.453125 11.015625 3.968750l5.953125 1.218750q11.031250 2.109375 16.281250 7.406250q5.250000 5.296875 5.250000 14.171875q0.000000 10.609375 -7.109375 16.078125q-7.093750 5.468750 -20.812500 5.468750q-5.171875 0.000000 -11.015625 -1.171875q-5.828125 -1.171875 -12.078125 -3.468750l0.000000 -10.156250q6.000000 3.359375 11.765625 5.078125q5.765625 1.703125 11.328125 1.703125q8.437500 0.000000 13.031250 -3.312500q4.593750 -3.328125 4.593750 -9.484375q0.000000 -5.359375 -3.296875 -8.390625q-3.296875 -3.031250 -10.812500 -4.546875l-6.015625 -1.171875q-11.031250 -2.187500 -15.968750 -6.875000q-4.921875 -4.687500 -4.921875 -13.046875q0.000000 -9.671875 6.812500 -15.234375q6.812500 -5.562500 18.765625 -5.562500q5.140625 0.000000 10.453125 0.937500q5.328125 0.921875 10.890625 2.765625"/>
<path id="c_ff9441f72805bc441fcb0bfe0d774f13" d="M19.671875 -64.796875l0.000000 56.687500l11.921875 0.000000q15.093750 0.000000 22.093750 -6.828125q7.000000 -6.843750 7.000000 -21.593750q0.000000 -14.640625 -7.000000 -21.453125q-7.000000 -6.812500 -22.093750 -6.812500zM9.812500 -72.906250l20.265625 0.000000q21.187500 0.000000 31.093750 8.812500q9.921875 8.812500 9.921875 27.562500q0.000000 18.859375 -9.968750 27.703125q-9.953125 8.828125 -31.046875 8.828125l-20.265625 0.000000z"/>
<path id="c_1e6263c731c474ef67a09469452f0b99" d="M11.718750 -12.406250l10.296875 0.000000l0.000000 12.406250l-10.296875 0.000000zM11.718750 -51.703125l10.296875 0.000000l0.000000 12.390625l-10.296875 0.000000z"/>
<path id="c_d41d8cd98f00b204e9800998ecf8427e" d=""/>
<path id="c_74d54c94aa871ec39e2bc6697dde6c00" d="M54.890625 -33.015625l0.000000 33.015625l-8.984375 0.000000l0.000000 -32.718750q0.000000 -7.765625 -3.031250 -11.609375q-3.031250 -3.859375 -9.078125 -3.859375q-7.281250 0.000000 -11.484375 4.640625q-4.203125 4.625000 -4.203125 12.640625l0.000000 30.906250l-9.031250 0.000000l0.000000 -75.984375l9.031250 0.000000l0.000000 29.796875q3.234375 -4.937500 7.593750 -7.375000q4.375000 -2.437500 10.093750 -2.437500q9.421875 0.000000 14.250000 5.828125q4.843750 5.828125 4.843750 17.156250"/>
<path id="c_6a63bda47b2f3da1cec6aadd80692cfe" d="M9.421875 -54.687500l8.984375 0.000000l0.000000 54.687500l-8.984375 0.000000zM9.421875 -75.984375l8.984375 0.000000l0.000000 11.390625l-8.984375 0.000000z"/>
<path id="c_e3864de5dabf2f8dd9eee74726882ec1" d="M45.406250 -27.984375q0.000000 -9.765625 -4.031250 -15.125000q-4.015625 -5.375000 -11.296875 -5.375000q-7.218750 0.000000 -11.250000 5.375000q-4.031250 5.359375 -4.031250 15.125000q0.000000 9.718750 4.031250 15.093750q4.031250 5.375000 11.250000 5.375000q7.281250 0.000000 11.296875 -5.375000q4.031250 -5.375000 4.031250 -15.093750M54.390625 -6.781250q0.000000 13.953125 -6.203125 20.765625q-6.187500 6.812500 -18.984375 6.812500q-4.734375 0.000000 -8.937500 -0.703125q-4.203125 -0.703125 -8.156250 -2.171875l0.000000 -8.734375q3.953125 2.140625 7.812500 3.156250q3.859375 1.031250 7.859375 1.031250q8.843750 0.000000 13.234375 -4.609375q4.390625 -4.609375 4.390625 -13.937500l0.000000 -4.453125q-2.781250 4.843750 -7.125000 7.234375q-4.343750 2.390625 -10.406250 2.390625q-10.046875 0.000000 -16.203125 -7.656250q-6.156250 -7.671875 -6.156250 -20.328125q0.000000 -12.687500 6.156250 -20.343750q6.156250 -7.671875 16.203125 -7.671875q6.062500 0.000000 10.406250 2.390625q4.343750 2.390625 7.125000 7.218750l0.000000 -8.296875l8.984375 0.000000z"/>
<path id="c_0bce5afba2dc6b9024b26277c38ad8e8" d="M56.203125 -29.593750l0.000000 4.390625l-41.312500 0.000000q0.593750 9.281250 5.593750 14.140625q5.000000 4.859375 13.937500 4.859375q5.171875 0.000000 10.031250 -1.265625q4.859375 -1.265625 9.656250 -3.812500l0.000000 8.500000q-4.843750 2.046875 -9.921875 3.125000q-5.078125 1.078125 -10.296875 1.078125q-13.093750 0.000000 -20.734375 -7.609375q-7.640625 -7.625000 -7.640625 -20.625000q0.000000 -13.421875 7.250000 -21.296875q7.250000 -7.890625 19.562500 -7.890625q11.031250 0.000000 17.453125 7.109375q6.421875 7.093750 6.421875 19.296875M47.218750 -32.234375q-0.093750 -7.359375 -4.125000 -11.750000q-4.031250 -4.406250 -10.671875 -4.406250q-7.515625 0.000000 -12.031250 4.250000q-4.515625 4.250000 -5.203125 11.968750z"/>
<path id="c_8e0810ad13fe20a2a87a2619799b154d" d="M44.281250 -53.078125l0.000000 8.500000q-3.796875 -1.953125 -7.906250 -2.921875q-4.093750 -0.984375 -8.500000 -0.984375q-6.687500 0.000000 -10.031250 2.046875q-3.343750 2.046875 -3.343750 6.156250q0.000000 3.125000 2.390625 4.906250q2.390625 1.781250 9.625000 3.390625l3.078125 0.687500q9.562500 2.046875 13.593750 5.781250q4.031250 3.734375 4.031250 10.421875q0.000000 7.625000 -6.031250 12.078125q-6.031250 4.437500 -16.578125 4.437500q-4.390625 0.000000 -9.156250 -0.859375q-4.765625 -0.859375 -10.031250 -2.562500l0.000000 -9.281250q4.984375 2.593750 9.812500 3.890625q4.828125 1.281250 9.578125 1.281250q6.343750 0.000000 9.750000 -2.171875q3.421875 -2.171875 3.421875 -6.125000q0.000000 -3.656250 -2.468750 -5.609375q-2.453125 -1.953125 -10.812500 -3.765625l-3.125000 -0.734375q-8.343750 -1.750000 -12.062500 -5.390625q-3.703125 -3.640625 -3.703125 -9.984375q0.000000 -7.718750 5.468750 -11.906250q5.468750 -4.203125 15.531250 -4.203125q4.968750 0.000000 9.359375 0.734375q4.406250 0.718750 8.109375 2.187500"/>
<path id="c_0f8c41144cfbf448378cb6fd1cc8e549" d="M18.312500 -70.218750l0.000000 15.531250l18.500000 0.000000l0.000000 6.984375l-18.500000 0.000000l0.000000 29.687500q0.000000 6.687500 1.828125 8.593750q1.828125 1.906250 7.453125 1.906250l9.218750 0.000000l0.000000 7.515625l-9.218750 0.000000q-10.406250 0.000000 -14.359375 -3.875000q-3.953125 -3.890625 -3.953125 -14.140625l0.000000 -29.687500l-6.593750 0.000000l0.000000 -6.984375l6.593750 0.000000l0.000000 -15.531250z"/>
<path id="c_cd96f817f3cab988d24a2b49a5577fe6" d="M10.984375 -1.515625l0.000000 -8.984375q3.718750 1.765625 7.515625 2.687500q3.812500 0.921875 7.484375 0.921875q9.765625 0.000000 14.906250 -6.562500q5.156250 -6.562500 5.890625 -19.953125q-2.828125 4.203125 -7.187500 6.453125q-4.343750 2.250000 -9.609375 2.250000q-10.937500 0.000000 -17.312500 -6.609375q-6.375000 -6.625000 -6.375000 -18.109375q0.000000 -11.218750 6.640625 -18.000000q6.640625 -6.796875 17.671875 -6.796875q12.656250 0.000000 19.312500 9.703125q6.671875 9.687500 6.671875 28.140625q0.000000 17.234375 -8.187500 27.515625q-8.171875 10.281250 -21.984375 10.281250q-3.718750 0.000000 -7.531250 -0.734375q-3.796875 -0.734375 -7.906250 -2.203125M30.609375 -32.421875q6.640625 0.000000 10.515625 -4.531250q3.890625 -4.546875 3.890625 -12.468750q0.000000 -7.859375 -3.890625 -12.421875q-3.875000 -4.562500 -10.515625 -4.562500q-6.640625 0.000000 -10.515625 4.562500q-3.875000 4.562500 -3.875000 12.421875q0.000000 7.921875 3.875000 12.468750q3.875000 4.531250 10.515625 4.531250"/>
<path id="c_73b12fe3945075d29fe0cc9a468fa31e" d="M37.109375 -75.984375l0.000000 7.484375l-8.593750 0.000000q-4.828125 0.000000 -6.718750 1.953125q-1.875000 1.953125 -1.875000 7.031250l0.000000 4.828125l14.796875 0.000000l0.000000 6.984375l-14.796875 0.000000l0.000000 47.703125l-9.031250 0.000000l0.000000 -47.703125l-8.593750 0.000000l0.000000 -6.984375l8.593750 0.000000l0.000000 -3.812500q0.000000 -9.125000 4.250000 -13.296875q4.250000 -4.187500 13.468750 -4.187500z"/>
<path id="c_6ec8d5749226675394676a5d2a3b468b" d="M41.109375 -46.296875q-1.515625 -0.875000 -3.296875 -1.281250q-1.781250 -0.421875 -3.921875 -0.421875q-7.625000 0.000000 -11.703125 4.953125q-4.078125 4.953125 -4.078125 14.234375l0.000000 28.812500l-9.031250 0.000000l0.000000 -54.687500l9.031250 0.000000l0.000000 8.500000q2.843750 -4.984375 7.375000 -7.390625q4.546875 -2.421875 11.046875 -2.421875q0.921875 0.000000 2.046875 0.125000q1.125000 0.109375 2.484375 0.359375z"/>
<path id="c_a66ecc39892414b9ca9362e0fffdc75b" d="M14.796875 -27.296875q0.000000 9.906250 4.078125 15.546875q4.078125 5.640625 11.203125 5.640625q7.125000 0.000000 11.218750 -5.640625q4.109375 -5.640625 4.109375 -15.546875q0.000000 -9.906250 -4.109375 -15.546875q-4.093750 -5.640625 -11.218750 -5.640625q-7.125000 0.000000 -11.203125 5.640625q-4.078125 5.640625 -4.078125 15.546875M45.406250 -8.203125q-2.828125 4.875000 -7.156250 7.250000q-4.312500 2.375000 -10.375000 2.375000q-9.906250 0.000000 -16.140625 -7.906250q-6.218750 -7.921875 -6.218750 -20.812500q0.000000 -12.890625 6.218750 -20.796875q6.234375 -7.906250 16.140625 -7.906250q6.062500 0.000000 10.375000 2.375000q4.328125 2.359375 7.156250 7.234375l0.000000 -8.296875l8.984375 0.000000l0.000000 75.484375l-8.984375 0.000000z"/>
<path id="c_c438d87e693443c2861ebd6359e6491e" d="M8.500000 -21.578125l0.000000 -33.109375l8.984375 0.000000l0.000000 32.765625q0.000000 7.765625 3.015625 11.656250q3.031250 3.875000 9.093750 3.875000q7.265625 0.000000 11.484375 -4.640625q4.234375 -4.640625 4.234375 -12.656250l0.000000 -31.000000l8.984375 0.000000l0.000000 54.687500l-8.984375 0.000000l0.000000 -8.406250q-3.265625 4.984375 -7.593750 7.406250q-4.312500 2.421875 -10.031250 2.421875q-9.421875 0.000000 -14.312500 -5.859375q-4.875000 -5.859375 -4.875000 -17.140625"/>
<path id="c_fe791a90f5471e2ab20a5ed41a7fa451" d="M54.890625 -33.015625l0.000000 33.015625l-8.984375 0.000000l0.000000 -32.718750q0.000000 -7.765625 -3.031250 -11.609375q-3.031250 -3.859375 -9.078125 -3.859375q-7.281250 0.000000 -11.484375 4.640625q-4.203125 4.625000 -4.203125 12.640625l0.000000 30.906250l-9.031250 0.000000l0.000000 -54.687500l9.031250 0.000000l0.000000 8.500000q3.234375 -4.937500 7.593750 -7.375000q4.375000 -2.437500 10.093750 -2.437500q9.421875 0.000000 14.250000 5.828125q4.843750 5.828125 4.843750 17.156250"/>
<path id="c_d650c37394b681142a10dfc54356d478" d="M48.781250 -52.593750l0.000000 8.406250q-3.812500 -2.109375 -7.640625 -3.156250q-3.828125 -1.046875 -7.734375 -1.046875q-8.750000 0.000000 -13.593750 5.546875q-4.828125 5.531250 -4.828125 15.546875q0.000000 10.015625 4.828125 15.562500q4.843750 5.531250 13.593750 5.531250q3.906250 0.000000 7.734375 -1.046875q3.828125 -1.046875 7.640625 -3.156250l0.000000 8.312500q-3.765625 1.750000 -7.796875 2.625000q-4.015625 0.890625 -8.562500 0.890625q-12.359375 0.000000 -19.640625 -7.765625q-7.265625 -7.765625 -7.265625 -20.953125q0.000000 -13.375000 7.343750 -21.031250q7.359375 -7.671875 20.156250 -7.671875q4.140625 0.000000 8.093750 0.859375q3.953125 0.843750 7.671875 2.546875"/>
<path id="c_7efa9804c2b4c09a4b614b91fdebee3d" d="M31.000000 -75.875000q-6.531250 11.218750 -9.718750 22.218750q-3.171875 10.984375 -3.171875 22.265625q0.000000 11.265625 3.203125 22.328125q3.203125 11.062500 9.687500 22.250000l-7.812500 0.000000q-7.312500 -11.484375 -10.953125 -22.562500q-3.640625 -11.078125 -3.640625 -22.015625q0.000000 -10.890625 3.609375 -21.921875q3.625000 -11.046875 10.984375 -22.562500z"/>
<path id="c_f05dd90d41f04bb96ef1ca503cc2044b" d="M30.609375 -48.390625q-7.218750 0.000000 -11.421875 5.640625q-4.203125 5.640625 -4.203125 15.453125q0.000000 9.812500 4.171875 15.453125q4.187500 5.640625 11.453125 5.640625q7.187500 0.000000 11.375000 -5.656250q4.203125 -5.671875 4.203125 -15.437500q0.000000 -9.718750 -4.203125 -15.406250q-4.187500 -5.687500 -11.375000 -5.687500M30.609375 -56.000000q11.718750 0.000000 18.406250 7.625000q6.703125 7.609375 6.703125 21.078125q0.000000 13.421875 -6.703125 21.078125q-6.687500 7.640625 -18.406250 7.640625q-11.765625 0.000000 -18.437500 -7.640625q-6.656250 -7.656250 -6.656250 -21.078125q0.000000 -13.468750 6.656250 -21.078125q6.671875 -7.625000 18.437500 -7.625000"/>
<path id="c_01d93a582460e35a7945ca50d148ffeb" d="M34.281250 -27.484375q-10.890625 0.000000 -15.093750 2.484375q-4.203125 2.484375 -4.203125 8.500000q0.000000 4.781250 3.156250 7.593750q3.156250 2.796875 8.562500 2.796875q7.484375 0.000000 12.000000 -5.296875q4.515625 -5.296875 4.515625 -14.078125l0.000000 -2.000000zM52.203125 -31.203125l0.000000 31.203125l-8.984375 0.000000l0.000000 -8.296875q-3.078125 4.968750 -7.671875 7.343750q-4.593750 2.375000 -11.234375 2.375000q-8.390625 0.000000 -13.359375 -4.718750q-4.953125 -4.718750 -4.953125 -12.625000q0.000000 -9.218750 6.171875 -13.906250q6.187500 -4.687500 18.437500 -4.687500l12.609375 0.000000l0.000000 -0.890625q0.000000 -6.203125 -4.078125 -9.593750q-4.078125 -3.390625 -11.453125 -3.390625q-4.687500 0.000000 -9.140625 1.125000q-4.437500 1.125000 -8.531250 3.375000l0.000000 -8.312500q4.921875 -1.906250 9.562500 -2.843750q4.640625 -0.953125 9.031250 -0.953125q11.875000 0.000000 17.734375 6.156250q5.859375 6.140625 5.859375 18.640625"/>
<path id="c_5099edb83619131346ae654950954dea" d="M9.421875 -75.984375l8.984375 0.000000l0.000000 75.984375l-8.984375 0.000000z"/>
<path id="c_e96974be642f6eac0427d72f9cec6c19" d="M8.015625 -75.875000l7.812500 0.000000q7.312500 11.515625 10.953125 22.562500q3.640625 11.031250 3.640625 21.921875q0.000000 10.937500 -3.640625 22.015625q-3.640625 11.078125 -10.953125 22.562500l-7.812500 0.000000q6.484375 -11.187500 9.687500 -22.250000q3.203125 -11.062500 3.203125 -22.328125q0.000000 -11.281250 -3.203125 -22.265625q-3.203125 -11.000000 -9.687500 -22.218750"/>
</defs>
<g style="fill: #000000; opacity: 1.000000" transform="translate(219.448153,52.933750)scale(0.144000)">
<use xlink:href="#c_518d586bee075aa0153eaebfcb5ab11f"/>
<use xlink:href="#c_b672e4bee30772019085dff1098f516d" x="60.302734"/>
<use xlink:href="#c_ff9441f72805bc441fcb0bfe0d774f13" x="123.779297"/>
<use xlink:href="#c_1e6263c731c474ef67a09469452f0b99" x="200.781250"/>
<use xlink:href="#c_d41d8cd98f00b204e9800998ecf8427e" x="234.472656"/>
<use xlink:href="#c_74d54c94aa871ec39e2bc6697dde6c00" x="266.259766"/>
<use xlink:href="#c_6a63bda47b2f3da1cec6aadd80692cfe" x="329.638672"/>
<use xlink:href="#c_e3864de5dabf2f8dd9eee74726882ec1" x="357.421875"/>
<use xlink:href="#c_74d54c94aa871ec39e2bc6697dde6c00" x="420.898437"/>
<use xlink:href="#c_0bce5afba2dc6b9024b26277c38ad8e8" x="484.277344"/>
<use xlink:href="#c_8e0810ad13fe20a2a87a2619799b154d" x="545.800781"/>
<use xlink:href="#c_0f8c41144cfbf448378cb6fd1cc8e549" x="597.900391"/>
<use xlink:href="#c_d41d8cd98f00b204e9800998ecf8427e" x="637.109375"/>
<use xlink:href="#c_cd96f817f3cab988d24a2b49a5577fe6" x="668.896484"/>
<use xlink:href="#c_d41d8cd98f00b204e9800998ecf8427e" x="732.519531"/>
<use xlink:href="#c_73b12fe3945075d29fe0cc9a468fa31e" x="764.306641"/>
<use xlink:href="#c_6ec8d5749226675394676a5d2a3b468b" x="799.511719"/>
<use xlink:href="#c_0bce5afba2dc6b9024b26277c38ad8e8" x="838.375000"/>
<use xlink:href="#c_a66ecc39892414b9ca9362e0fffdc75b" x="899.898437"/>
<use xlink:href="#c_c438d87e693443c2861ebd6359e6491e" x="963.375000"/>
<use xlink:href="#c_0bce5afba2dc6b9024b26277c38ad8e8" x="1026.753906"/>
<use xlink:href="#c_fe791a90f5471e2ab20a5ed41a7fa451" x="1088.277344"/>
<use xlink:href="#c_d650c37394b681142a10dfc54356d478" x="1151.656250"/>
<use xlink:href="#c_6a63bda47b2f3da1cec6aadd80692cfe" x="1206.636719"/>
<use xlink:href="#c_0bce5afba2dc6b9024b26277c38ad8e8" x="1234.419922"/>
<use xlink:href="#c_8e0810ad13fe20a2a87a2619799b154d" x="1295.943359"/>
<use xlink:href="#c_d41d8cd98f00b204e9800998ecf8427e" x="1348.042969"/>
<use xlink:href="#c_7efa9804c2b4c09a4b614b91fdebee3d" x="1379.830078"/>
<use xlink:href="#c_0f8c41144cfbf448378cb6fd1cc8e549" x="1418.843750"/>
<use xlink:href="#c_f05dd90d41f04bb96ef1ca503cc2044b" x="1458.052734"/>
<use xlink:href="#c_0f8c41144cfbf448378cb6fd1cc8e549" x="1519.234375"/>
<use xlink:href="#c_01d93a582460e35a7945ca50d148ffeb" x="1558.443359"/>
<use xlink:href="#c_5099edb83619131346ae654950954dea" x="1619.722656"/>
<use xlink:href="#c_d41d8cd98f00b204e9800998ecf8427e" x="1647.505859"/>
<use xlink:href="#c_cd96f817f3cab988d24a2b49a5577fe6" x="1679.292969"/>
<use xlink:href="#c_e96974be642f6eac0427d72f9cec6c19" x="1742.916016"/>
</g>
</g>
<g id="legend1">
<g id="patch7">
<path style="fill: #4d4d4d; stroke: #4d4d4d; stroke-width: 1.000000; stroke-linejoin: round; stroke-linecap: square;  opacity: 1.000000"  d="M270.075057 221.541250L544.618182 221.541250L544.618182 70.040000
L270.075057 70.040000L270.075057 221.541250z"/>
</g>
<g id="patch8">
<path style="fill: #ffffff; stroke: #000000; stroke-width: 1.000000; stroke-linejoin: round; stroke-linecap: square;  opacity: 1.000000"  d="M268.075057 219.541250L542.618182 219.541250L542.618182 68.040000
L268.075057 68.040000L268.075057 219.541250z"/>
</g>
<g id="line2d40">
<path style="fill: none; stroke: #0000ff; stroke-width: 1.000000; stroke-linejoin: round; stroke-linecap: square;  opacity: 1.000000"  d="M278.155057 79.400625L298.315057 79.400625"/>
</g>
<g id="line2d41">
</g>
<g id="text18">
<defs>
<path id="c_425fd1cbcd899bef0a79975ae4756bf8" d="M19.671875 -34.812500l0.000000 26.703125l15.828125 0.000000q7.953125 0.000000 11.781250 -3.296875q3.843750 -3.296875 3.843750 -10.078125q0.000000 -6.843750 -3.843750 -10.078125q-3.828125 -3.250000 -11.781250 -3.250000zM19.671875 -64.796875l0.000000 21.968750l14.609375 0.000000q7.218750 0.000000 10.750000 -2.703125q3.546875 -2.718750 3.546875 -8.281250q0.000000 -5.515625 -3.546875 -8.250000q-3.531250 -2.734375 -10.750000 -2.734375zM9.812500 -72.906250l25.203125 0.000000q11.281250 0.000000 17.375000 4.687500q6.109375 4.687500 6.109375 13.328125q0.000000 6.703125 -3.125000 10.656250q-3.125000 3.953125 -9.187500 4.921875q7.281250 1.562500 11.312500 6.531250q4.031250 4.953125 4.031250 12.375000q0.000000 9.765625 -6.640625 15.093750q-6.640625 5.312500 -18.906250 5.312500l-26.171875 0.000000z"/>
<path id="c_d821beae607506e87470f334d9ff47af" d="M45.406250 -46.390625l0.000000 -29.593750l8.984375 0.000000l0.000000 75.984375l-8.984375 0.000000l0.000000 -8.203125q-2.828125 4.875000 -7.156250 7.250000q-4.312500 2.375000 -10.375000 2.375000q-9.906250 0.000000 -16.140625 -7.906250q-6.218750 -7.921875 -6.218750 -20.812500q0.000000 -12.890625 6.218750 -20.796875q6.234375 -7.906250 16.140625 -7.906250q6.062500 0.000000 10.375000 2.375000q4.328125 2.359375 7.156250 7.234375M14.796875 -27.296875q0.000000 9.906250 4.078125 15.546875q4.078125 5.640625 11.203125 5.640625q7.125000 0.000000 11.218750 -5.640625q4.109375 -5.640625 4.109375 -15.546875q0.000000 -9.906250 -4.109375 -15.546875q-4.093750 -5.640625 -11.218750 -5.640625q-7.125000 0.000000 -11.203125 5.640625q-4.078125 5.640625 -4.078125 15.546875"/>
<path id="c_72234ddc5dcad8d05c893ef0371171da" d="M9.812500 -72.906250l14.703125 0.000000l18.593750 49.609375l18.703125 -49.609375l14.703125 0.000000l0.000000 72.906250l-9.625000 0.000000l0.000000 -64.015625l-18.796875 50.000000l-9.906250 0.000000l-18.796875 -50.000000l0.000000 64.015625l-9.578125 0.000000z"/>
<path id="c_7aecf22c350a602b3f972fa102c17cac" d="M9.812500 -72.906250l9.859375 0.000000l0.000000 30.812500l32.718750 -30.812500l12.703125 0.000000l-36.187500 33.984375l38.765625 38.921875l-12.984375 0.000000l-35.015625 -35.109375l0.000000 35.109375l-9.859375 0.000000z"/>
<path id="c_4653c6dfde66c7610eae0911760d3490" d="M52.000000 -44.187500q3.375000 -6.062500 8.062500 -8.937500q4.687500 -2.875000 11.031250 -2.875000q8.546875 0.000000 13.187500 5.984375q4.640625 5.968750 4.640625 17.000000l0.000000 33.015625l-9.031250 0.000000l0.000000 -32.718750q0.000000 -7.859375 -2.796875 -11.656250q-2.781250 -3.812500 -8.484375 -3.812500q-6.984375 0.000000 -11.046875 4.640625q-4.046875 4.625000 -4.046875 12.640625l0.000000 30.906250l-9.031250 0.000000l0.000000 -32.718750q0.000000 -7.906250 -2.781250 -11.687500q-2.781250 -3.781250 -8.593750 -3.781250q-6.890625 0.000000 -10.953125 4.656250q-4.046875 4.656250 -4.046875 12.625000l0.000000 30.906250l-9.031250 0.000000l0.000000 -54.687500l9.031250 0.000000l0.000000 8.500000q3.078125 -5.031250 7.375000 -7.421875q4.296875 -2.390625 10.203125 -2.390625q5.968750 0.000000 10.140625 3.031250q4.171875 3.015625 6.171875 8.781250"/>
<path id="c_f15a64fcd463ef4629c48bab42cde24c" d="M18.109375 -8.203125l0.000000 29.000000l-9.031250 0.000000l0.000000 -75.484375l9.031250 0.000000l0.000000 8.296875q2.843750 -4.875000 7.156250 -7.234375q4.328125 -2.375000 10.328125 -2.375000q9.968750 0.000000 16.187500 7.906250q6.234375 7.906250 6.234375 20.796875q0.000000 12.890625 -6.234375 20.812500q-6.218750 7.906250 -16.187500 7.906250q-6.000000 0.000000 -10.328125 -2.375000q-4.312500 -2.375000 -7.156250 -7.250000M48.687500 -27.296875q0.000000 -9.906250 -4.078125 -15.546875q-4.078125 -5.640625 -11.203125 -5.640625q-7.140625 0.000000 -11.218750 5.640625q-4.078125 5.640625 -4.078125 15.546875q0.000000 9.906250 4.078125 15.546875q4.078125 5.640625 11.218750 5.640625q7.125000 0.000000 11.203125 -5.640625q4.078125 -5.640625 4.078125 -15.546875"/>
<path id="c_801fe2e877fad46da27c898b407b3b54" d="M54.890625 -54.687500l-19.781250 26.609375l20.796875 28.078125l-10.593750 0.000000l-15.921875 -21.484375l-15.906250 21.484375l-10.609375 0.000000l21.250000 -28.609375l-19.437500 -26.078125l10.593750 0.000000l14.500000 19.484375l14.500000 -19.484375z"/>
<path id="c_9e4b30cbdf32072672ded72e9074c4c9" d="M-0.296875 -72.906250l61.671875 0.000000l0.000000 8.312500l-25.875000 0.000000l0.000000 64.593750l-9.906250 0.000000l0.000000 -64.593750l-25.890625 0.000000z"/>
<path id="c_4c6532c564269b2c70b230c2e45c01e4" d="M44.390625 -34.187500q3.171875 1.078125 6.171875 4.593750q3.000000 3.515625 6.031250 9.671875l10.015625 19.921875l-10.609375 0.000000l-9.312500 -18.703125q-3.625000 -7.328125 -7.015625 -9.718750q-3.390625 -2.390625 -9.250000 -2.390625l-10.750000 0.000000l0.000000 30.812500l-9.859375 0.000000l0.000000 -72.906250l22.265625 0.000000q12.500000 0.000000 18.656250 5.234375q6.156250 5.218750 6.156250 15.765625q0.000000 6.890625 -3.203125 11.437500q-3.203125 4.531250 -9.296875 6.281250M19.671875 -64.796875l0.000000 25.875000l12.406250 0.000000q7.125000 0.000000 10.765625 -3.296875q3.640625 -3.296875 3.640625 -9.687500q0.000000 -6.390625 -3.640625 -9.640625q-3.640625 -3.250000 -10.765625 -3.250000z"/>
<path id="c_ed3e21196fb739f392806f09ca0594ef" d="M10.687500 -12.406250l10.312500 0.000000l0.000000 12.406250l-10.312500 0.000000z"/>
<path id="c_c48ceabac27bf136feba2f4bf2716ab6" d="M2.984375 -54.687500l9.515625 0.000000l17.093750 45.890625l17.093750 -45.890625l9.515625 0.000000l-20.515625 54.687500l-12.203125 0.000000z"/>
</defs>
<g style="fill: #000000; opacity: 1.000000" transform="translate(314.155057,84.440625)scale(0.144000)">
<use xlink:href="#c_425fd1cbcd899bef0a79975ae4756bf8"/>
<use xlink:href="#c_01d93a582460e35a7945ca50d148ffeb" x="68.603516"/>
<use xlink:href="#c_01d93a582460e35a7945ca50d148ffeb" x="129.882812"/>
<use xlink:href="#c_d821beae607506e87470f334d9ff47af" x="191.162109"/>
<use xlink:href="#c_0bce5afba2dc6b9024b26277c38ad8e8" x="254.638672"/>
<use xlink:href="#c_6ec8d5749226675394676a5d2a3b468b" x="316.162109"/>
<use xlink:href="#c_72234ddc5dcad8d05c893ef0371171da" x="357.275391"/>
<use xlink:href="#c_0bce5afba2dc6b9024b26277c38ad8e8" x="443.554688"/>
<use xlink:href="#c_6a63bda47b2f3da1cec6aadd80692cfe" x="505.078125"/>
<use xlink:href="#c_fe791a90f5471e2ab20a5ed41a7fa451" x="532.861328"/>
<use xlink:href="#c_74d54c94aa871ec39e2bc6697dde6c00" x="596.240234"/>
<use xlink:href="#c_f05dd90d41f04bb96ef1ca503cc2044b" x="659.619141"/>
<use xlink:href="#c_73b12fe3945075d29fe0cc9a468fa31e" x="720.800781"/>
<use xlink:href="#c_7aecf22c350a602b3f972fa102c17cac" x="756.005859"/>
<use xlink:href="#c_f05dd90d41f04bb96ef1ca503cc2044b" x="816.582031"/>
<use xlink:href="#c_4653c6dfde66c7610eae0911760d3490" x="877.763672"/>
<use xlink:href="#c_f15a64fcd463ef4629c48bab42cde24c" x="975.175781"/>
<use xlink:href="#c_5099edb83619131346ae654950954dea" x="1038.652344"/>
<use xlink:href="#c_0bce5afba2dc6b9024b26277c38ad8e8" x="1066.435547"/>
<use xlink:href="#c_801fe2e877fad46da27c898b407b3b54" x="1126.208984"/>
<use xlink:href="#c_9e4b30cbdf32072672ded72e9074c4c9" x="1185.388672"/>
<use xlink:href="#c_4c6532c564269b2c70b230c2e45c01e4" x="1246.472656"/>
<use xlink:href="#c_ed3e21196fb739f392806f09ca0594ef" x="1312.330078"/>
<use xlink:href="#c_4653c6dfde66c7610eae0911760d3490" x="1344.117188"/>
<use xlink:href="#c_f05dd90d41f04bb96ef1ca503cc2044b" x="1441.529297"/>
<use xlink:href="#c_c48ceabac27bf136feba2f4bf2716ab6" x="1502.710938"/>
</g>
</g>
<g id="line2d42">
<path style="fill: none; stroke: #008000; stroke-width: 1.000000; stroke-linejoin: round; stroke-linecap: square;  opacity: 1.000000"  d="M278.155057 100.147500L298.315057 100.147500"/>
</g>
<g id="line2d43">
</g>
<g id="text19">
<defs>
<path id="c_53989f37671240acb447bc6046631699" d="M50.984375 16.609375l0.000000 6.968750l-51.968750 0.000000l0.000000 -6.968750z"/>
</defs>
<g style="fill: #000000; opacity: 1.000000" transform="translate(314.155057,105.187500)scale(0.144000)">
<use xlink:href="#c_01d93a582460e35a7945ca50d148ffeb"/>
<use xlink:href="#c_6ec8d5749226675394676a5d2a3b468b" x="61.279297"/>
<use xlink:href="#c_e3864de5dabf2f8dd9eee74726882ec1" x="100.642578"/>
<use xlink:href="#c_c48ceabac27bf136feba2f4bf2716ab6" x="164.119141"/>
<use xlink:href="#c_ed3f3ed3ebfbd18bcb9c012009a68ad1" x="223.298828"/>
<use xlink:href="#c_53989f37671240acb447bc6046631699" x="286.921875"/>
<use xlink:href="#c_ed3f3ed3ebfbd18bcb9c012009a68ad1" x="336.921875"/>
<use xlink:href="#c_f15a64fcd463ef4629c48bab42cde24c" x="400.544922"/>
<use xlink:href="#c_01d93a582460e35a7945ca50d148ffeb" x="464.021484"/>
<use xlink:href="#c_8e0810ad13fe20a2a87a2619799b154d" x="525.300781"/>
<use xlink:href="#c_8e0810ad13fe20a2a87a2619799b154d" x="577.400391"/>
<use xlink:href="#c_ed3e21196fb739f392806f09ca0594ef" x="629.500000"/>
<use xlink:href="#c_4653c6dfde66c7610eae0911760d3490" x="661.287109"/>
<use xlink:href="#c_f15a64fcd463ef4629c48bab42cde24c" x="758.699219"/>
<use xlink:href="#c_a0416418d96557a09b8c1332d34883ba" x="822.175781"/>
</g>
</g>
<g id="line2d44">
<path style="fill: none; stroke: #ff0000; stroke-width: 1.000000; stroke-linejoin: round; stroke-linecap: square;  opacity: 1.000000"  d="M278.155057 121.285000L298.315057 121.285000"/>
</g>
<g id="line2d45">
</g>
<g id="text20">
<g style="fill: #000000; opacity: 1.000000" transform="translate(314.155057,126.325000)scale(0.144000)">
<use xlink:href="#c_01d93a582460e35a7945ca50d148ffeb"/>
<use xlink:href="#c_6ec8d5749226675394676a5d2a3b468b" x="61.279297"/>
<use xlink:href="#c_e3864de5dabf2f8dd9eee74726882ec1" x="100.642578"/>
<use xlink:href="#c_c48ceabac27bf136feba2f4bf2716ab6" x="164.119141"/>
<use xlink:href="#c_3dcfa38a02242cb63ec6726c6e70be7a" x="223.298828"/>
<use xlink:href="#c_53989f37671240acb447bc6046631699" x="286.921875"/>
<use xlink:href="#c_ed3f3ed3ebfbd18bcb9c012009a68ad1" x="336.921875"/>
<use xlink:href="#c_f15a64fcd463ef4629c48bab42cde24c" x="400.544922"/>
<use xlink:href="#c_01d93a582460e35a7945ca50d148ffeb" x="464.021484"/>
<use xlink:href="#c_8e0810ad13fe20a2a87a2619799b154d" x="525.300781"/>
<use xlink:href="#c_8e0810ad13fe20a2a87a2619799b154d" x="577.400391"/>
<use xlink:href="#c_ed3e21196fb739f392806f09ca0594ef" x="629.500000"/>
<use xlink:href="#c_4653c6dfde66c7610eae0911760d3490" x="661.287109"/>
<use xlink:href="#c_f15a64fcd463ef4629c48bab42cde24c" x="758.699219"/>
<use xlink:href="#c_a0416418d96557a09b8c1332d34883ba" x="822.175781"/>
</g>
</g>
<g id="line2d46">
<path style="fill: none; stroke: #00bfbf; stroke-width: 1.000000; stroke-linejoin: round; stroke-linecap: square;  opacity: 1.000000"  d="M278.155057 142.422500L298.315057 142.422500"/>
</g>
<g id="line2d47">
</g>
<g id="text21">
<g style="fill: #000000; opacity: 1.000000" transform="translate(314.155057,147.462500)scale(0.144000)">
<use xlink:href="#c_01d93a582460e35a7945ca50d148ffeb"/>
<use xlink:href="#c_6ec8d5749226675394676a5d2a3b468b" x="61.279297"/>
<use xlink:href="#c_e3864de5dabf2f8dd9eee74726882ec1" x="100.642578"/>
<use xlink:href="#c_c48ceabac27bf136feba2f4bf2716ab6" x="164.119141"/>
<use xlink:href="#c_a0416418d96557a09b8c1332d34883ba" x="223.298828"/>
<use xlink:href="#c_53989f37671240acb447bc6046631699" x="286.921875"/>
<use xlink:href="#c_ed3f3ed3ebfbd18bcb9c012009a68ad1" x="336.921875"/>
<use xlink:href="#c_f15a64fcd463ef4629c48bab42cde24c" x="400.544922"/>
<use xlink:href="#c_01d93a582460e35a7945ca50d148ffeb" x="464.021484"/>
<use xlink:href="#c_8e0810ad13fe20a2a87a2619799b154d" x="525.300781"/>
<use xlink:href="#c_8e0810ad13fe20a2a87a2619799b154d" x="577.400391"/>
<use xlink:href="#c_ed3e21196fb739f392806f09ca0594ef" x="629.500000"/>
<use xlink:href="#c_4653c6dfde66c7610eae0911760d3490" x="661.287109"/>
<use xlink:href="#c_f15a64fcd463ef4629c48bab42cde24c" x="758.699219"/>
<use xlink:href="#c_a0416418d96557a09b8c1332d34883ba" x="822.175781"/>
</g>
</g>
<g id="line2d48">
<path style="fill: none; stroke: #bf00bf; stroke-width: 1.000000; stroke-linejoin: round; stroke-linecap: square;  opacity: 1.000000"  d="M278.155057 163.560000L298.315057 163.560000"/>
</g>
<g id="line2d49">
</g>
<g id="text22">
<defs>
<path id="c_7b26b13f539f13a4c64eef23b6952d29" d="M4.890625 -31.390625l26.312500 0.000000l0.000000 8.000000l-26.312500 0.000000z"/>
<path id="c_5cc9741494d2ad8f9764e03ae145569f" d="M48.687500 -27.296875q0.000000 -9.906250 -4.078125 -15.546875q-4.078125 -5.640625 -11.203125 -5.640625q-7.140625 0.000000 -11.218750 5.640625q-4.078125 5.640625 -4.078125 15.546875q0.000000 9.906250 4.078125 15.546875q4.078125 5.640625 11.218750 5.640625q7.125000 0.000000 11.203125 -5.640625q4.078125 -5.640625 4.078125 -15.546875M18.109375 -46.390625q2.843750 -4.875000 7.156250 -7.234375q4.328125 -2.375000 10.328125 -2.375000q9.968750 0.000000 16.187500 7.906250q6.234375 7.906250 6.234375 20.796875q0.000000 12.890625 -6.234375 20.812500q-6.218750 7.906250 -16.187500 7.906250q-6.000000 0.000000 -10.328125 -2.375000q-4.312500 -2.375000 -7.156250 -7.250000l0.000000 8.203125l-9.031250 0.000000l0.000000 -75.984375l9.031250 0.000000z"/>
</defs>
<g style="fill: #000000; opacity: 1.000000" transform="translate(314.155057,168.600000)scale(0.144000)">
<use xlink:href="#c_01d93a582460e35a7945ca50d148ffeb"/>
<use xlink:href="#c_6ec8d5749226675394676a5d2a3b468b" x="61.279297"/>
<use xlink:href="#c_e3864de5dabf2f8dd9eee74726882ec1" x="100.642578"/>
<use xlink:href="#c_c48ceabac27bf136feba2f4bf2716ab6" x="164.119141"/>
<use xlink:href="#c_1260a2df50f305f3db244e29828f968e" x="223.298828"/>
<use xlink:href="#c_7b26b13f539f13a4c64eef23b6952d29" x="286.921875"/>
<use xlink:href="#c_42baa63129a918535c52adb20d687ea7" x="323.005859"/>
<use xlink:href="#c_f15a64fcd463ef4629c48bab42cde24c" x="386.628906"/>
<use xlink:href="#c_01d93a582460e35a7945ca50d148ffeb" x="450.105469"/>
<use xlink:href="#c_8e0810ad13fe20a2a87a2619799b154d" x="511.384766"/>
<use xlink:href="#c_8e0810ad13fe20a2a87a2619799b154d" x="563.484375"/>
<use xlink:href="#c_53989f37671240acb447bc6046631699" x="615.583984"/>
<use xlink:href="#c_d650c37394b681142a10dfc54356d478" x="665.583984"/>
<use xlink:href="#c_5cc9741494d2ad8f9764e03ae145569f" x="720.564453"/>
<use xlink:href="#c_6ec8d5749226675394676a5d2a3b468b" x="784.041016"/>
<use xlink:href="#c_ed3e21196fb739f392806f09ca0594ef" x="816.029297"/>
<use xlink:href="#c_4653c6dfde66c7610eae0911760d3490" x="847.816406"/>
<use xlink:href="#c_f15a64fcd463ef4629c48bab42cde24c" x="945.228516"/>
<use xlink:href="#c_a0416418d96557a09b8c1332d34883ba" x="1008.705078"/>
</g>
</g>
<g id="line2d50">
<path style="fill: none; stroke: #bfbf00; stroke-width: 1.000000; stroke-linejoin: round; stroke-linecap: square;  opacity: 1.000000"  d="M278.155057 184.697500L298.315057 184.697500"/>
</g>
<g id="line2d51">
</g>
<g id="text23">
<g style="fill: #000000; opacity: 1.000000" transform="translate(314.155057,189.737500)scale(0.144000)">
<use xlink:href="#c_01d93a582460e35a7945ca50d148ffeb"/>
<use xlink:href="#c_6ec8d5749226675394676a5d2a3b468b" x="61.279297"/>
<use xlink:href="#c_e3864de5dabf2f8dd9eee74726882ec1" x="100.642578"/>
<use xlink:href="#c_c48ceabac27bf136feba2f4bf2716ab6" x="164.119141"/>
<use xlink:href="#c_cc8d6d580d1b10c8632f7a42cd53db8a" x="223.298828"/>
<use xlink:href="#c_53989f37671240acb447bc6046631699" x="286.921875"/>
<use xlink:href="#c_42baa63129a918535c52adb20d687ea7" x="336.921875"/>
<use xlink:href="#c_f15a64fcd463ef4629c48bab42cde24c" x="400.544922"/>
<use xlink:href="#c_01d93a582460e35a7945ca50d148ffeb" x="464.021484"/>
<use xlink:href="#c_8e0810ad13fe20a2a87a2619799b154d" x="525.300781"/>
<use xlink:href="#c_8e0810ad13fe20a2a87a2619799b154d" x="577.400391"/>
<use xlink:href="#c_7b26b13f539f13a4c64eef23b6952d29" x="629.500000"/>
<use xlink:href="#c_c48ceabac27bf136feba2f4bf2716ab6" x="662.958984"/>
<use xlink:href="#c_5cc9741494d2ad8f9764e03ae145569f" x="722.138672"/>
<use xlink:href="#c_6ec8d5749226675394676a5d2a3b468b" x="785.615234"/>
<use xlink:href="#c_ed3e21196fb739f392806f09ca0594ef" x="817.603516"/>
<use xlink:href="#c_4653c6dfde66c7610eae0911760d3490" x="849.390625"/>
<use xlink:href="#c_f15a64fcd463ef4629c48bab42cde24c" x="946.802734"/>
<use xlink:href="#c_a0416418d96557a09b8c1332d34883ba" x="1010.279297"/>
</g>
</g>
<g id="line2d52">
<path style="fill: none; stroke: #000000; stroke-width: 1.000000; stroke-linejoin: round; stroke-linecap: square;  opacity: 1.000000"  d="M278.155057 205.835000L298.315057 205.835000"/>
</g>
<g id="line2d53">
</g>
<g id="text24">
<g style="fill: #000000; opacity: 1.000000" transform="translate(314.155057,210.875000)scale(0.144000)">
<use xlink:href="#c_01d93a582460e35a7945ca50d148ffeb"/>
<use xlink:href="#c_6ec8d5749226675394676a5d2a3b468b" x="61.279297"/>
<use xlink:href="#c_e3864de5dabf2f8dd9eee74726882ec1" x="100.642578"/>
<use xlink:href="#c_c48ceabac27bf136feba2f4bf2716ab6" x="164.119141"/>
<use xlink:href="#c_956f18cfdaf972f35a6c2b4aaac2532b" x="223.298828"/>
<use xlink:href="#c_7b26b13f539f13a4c64eef23b6952d29" x="286.921875"/>
<use xlink:href="#c_4653c6dfde66c7610eae0911760d3490" x="323.005859"/>
<use xlink:href="#c_0bce5afba2dc6b9024b26277c38ad8e8" x="420.417969"/>
<use xlink:href="#c_fe791a90f5471e2ab20a5ed41a7fa451" x="481.941406"/>
<use xlink:href="#c_d650c37394b681142a10dfc54356d478" x="545.320312"/>
<use xlink:href="#c_f05dd90d41f04bb96ef1ca503cc2044b" x="600.300781"/>
<use xlink:href="#c_d821beae607506e87470f334d9ff47af" x="661.482422"/>
<use xlink:href="#c_0bce5afba2dc6b9024b26277c38ad8e8" x="724.958984"/>
<use xlink:href="#c_6ec8d5749226675394676a5d2a3b468b" x="786.482422"/>
<use xlink:href="#c_7b26b13f539f13a4c64eef23b6952d29" x="821.220703"/>
<use xlink:href="#c_ed3f3ed3ebfbd18bcb9c012009a68ad1" x="857.304687"/>
<use xlink:href="#c_f15a64fcd463ef4629c48bab42cde24c" x="920.927734"/>
<use xlink:href="#c_01d93a582460e35a7945ca50d148ffeb" x="984.404297"/>
<use xlink:href="#c_8e0810ad13fe20a2a87a2619799b154d" x="1045.683594"/>
<use xlink:href="#c_8e0810ad13fe20a2a87a2619799b154d" x="1097.783203"/>
<use xlink:href="#c_ed3e21196fb739f392806f09ca0594ef" x="1149.882812"/>
<use xlink:href="#c_4653c6dfde66c7610eae0911760d3490" x="1181.669922"/>
<use xlink:href="#c_f15a64fcd463ef4629c48bab42cde24c" x="1279.082031"/>
<use xlink:href="#c_a0416418d96557a09b8c1332d34883ba" x="1342.558594"/>
</g>
</g>
</g>
</g>
<g id="axes2">
<g id="patch9">
<path style="fill: #ffffff; opacity: 1.000000"  d="M630.981818 547.560000L1036.800000 547.560000L1036.800000 60.840000
L630.981818 60.840000L630.981818 547.560000"/>
</g>
<g id="line2d54">
<defs>
  <clipPath id="p3b279bc42f3762abb831f20b6ac1331d">
<rect x="630.981818" y="60.840000" width="405.818182" height="486.720000"/>
  </clipPath>
</defs><path style="fill: none; stroke: #0000ff; stroke-width: 1.000000; stroke-linejoin: round; stroke-linecap: square;  opacity: 1.000000" clip-path="url(#p3b279bc42f3762abb831f20b6ac1331d)" d="M620.719031 67.378566L679.889420 67.378566L739.059810 67.378566
L798.230200 67.378566L857.400589 67.378566L916.570979 67.378566
L975.741368 67.378566L1034.911758 67.378566"/>
</g>
<g id="line2d55">
<path style="fill: none; stroke: #008000; stroke-width: 1.000000; stroke-linejoin: round; stroke-linecap: square;  opacity: 1.000000" clip-path="url(#p3b279bc42f3762abb831f20b6ac1331d)" d="M620.719031 174.120258L679.889420 221.136488L739.059810 233.339502
L798.230200 217.917264L857.400589 174.460681L916.570979 140.961681
L975.741368 97.700985L1034.911758 67.378566"/>
</g>
<g id="line2d56">
<path style="fill: none; stroke: #ff0000; stroke-width: 1.000000; stroke-linejoin: round; stroke-linecap: square;  opacity: 1.000000" clip-path="url(#p3b279bc42f3762abb831f20b6ac1331d)" d="M620.719031 171.681218L679.889420 218.053793L739.059810 224.684931
L798.230200 198.291483L857.400589 156.331281L916.570979 123.384361
L975.741368 81.983990L1034.911758 67.378566"/>
</g>
<g id="line2d57">
<path style="fill: none; stroke: #00bfbf; stroke-width: 1.000000; stroke-linejoin: round; stroke-linecap: square;  opacity: 1.000000" clip-path="url(#p3b279bc42f3762abb831f20b6ac1331d)" d="M620.719031 174.068565L679.889420 221.734712L739.059810 230.607440
L798.230200 207.696537L857.400589 168.268834L916.570979 139.764425
L975.741368 95.541424L1034.911758 67.378566"/>
</g>
<g id="line2d58">
<path style="fill: none; stroke: #bf00bf; stroke-width: 1.000000; stroke-linejoin: round; stroke-linecap: square;  opacity: 1.000000" clip-path="url(#p3b279bc42f3762abb831f20b6ac1331d)" d="M620.719031 192.656654L679.889420 258.092518L739.059810 354.441439
L798.230200 377.918597L857.400589 365.669408L916.570979 394.368122
L975.741368 416.251641L1034.911758 67.378566"/>
</g>
<g id="line2d59">
<path style="fill: none; stroke: #bfbf00; stroke-width: 1.000000; stroke-linejoin: round; stroke-linecap: square;  opacity: 1.000000" clip-path="url(#p3b279bc42f3762abb831f20b6ac1331d)" d="M620.719031 184.109891L679.889420 244.866486L739.059810 333.250125
L798.230200 350.738757L857.400589 331.948922L916.570979 341.966901
L975.741368 344.534496L1034.911758 67.378566"/>
</g>
<g id="line2d60">
<path style="fill: none; stroke: #000000; stroke-width: 1.000000; stroke-linejoin: round; stroke-linecap: square;  opacity: 1.000000" clip-path="url(#p3b279bc42f3762abb831f20b6ac1331d)" d="M620.719031 110.465363L679.889420 128.672149L739.059810 177.784270
L798.230200 215.381590L857.400589 219.560865L916.570979 240.012412
L975.741368 221.157648L1034.911758 67.378566"/>
</g>
<g id="matplotlib.axis3">
<g id="xtick10">
<g id="line2d61">
<g ><use style="fill: none; stroke: #000000; stroke-width: 0.500000; stroke-linejoin: round; stroke-linecap: butt;  opacity: 1.000000" xlink:href="#m30e32995789d870ad79a2e54c91cf9c6" x="679.889420" y="547.560000"/>
</g></g>
<g id="line2d62">
<g ><use style="fill: none; stroke: #000000; stroke-width: 0.500000; stroke-linejoin: round; stroke-linecap: butt;  opacity: 1.000000" xlink:href="#m9281cae24120827b11d5ea8a7ad3e96b" x="679.889420" y="60.840000"/>
</g></g>
<g id="text25">
<g style="fill: #000000; opacity: 1.000000" transform="translate(677.280045,560.310000)scale(0.120000)">
<use xlink:href="#c_42baa63129a918535c52adb20d687ea7"/>
</g>
</g>
</g>
<g id="xtick11">
<g id="line2d63">
<g ><use style="fill: none; stroke: #000000; stroke-width: 0.500000; stroke-linejoin: round; stroke-linecap: butt;  opacity: 1.000000" xlink:href="#m30e32995789d870ad79a2e54c91cf9c6" x="739.059810" y="547.560000"/>
</g></g>
<g id="line2d64">
<g ><use style="fill: none; stroke: #000000; stroke-width: 0.500000; stroke-linejoin: round; stroke-linecap: butt;  opacity: 1.000000" xlink:href="#m9281cae24120827b11d5ea8a7ad3e96b" x="739.059810" y="60.840000"/>
</g></g>
<g id="text26">
<g style="fill: #000000; opacity: 1.000000" transform="translate(736.278560,560.466250)scale(0.120000)">
<use xlink:href="#c_ed3f3ed3ebfbd18bcb9c012009a68ad1"/>
</g>
</g>
</g>
<g id="xtick12">
<g id="line2d65">
<g ><use style="fill: none; stroke: #000000; stroke-width: 0.500000; stroke-linejoin: round; stroke-linecap: butt;  opacity: 1.000000" xlink:href="#m30e32995789d870ad79a2e54c91cf9c6" x="798.230200" y="547.560000"/>
</g></g>
<g id="line2d66">
<g ><use style="fill: none; stroke: #000000; stroke-width: 0.500000; stroke-linejoin: round; stroke-linecap: butt;  opacity: 1.000000" xlink:href="#m9281cae24120827b11d5ea8a7ad3e96b" x="798.230200" y="60.840000"/>
</g></g>
<g id="text27">
<g style="fill: #000000; opacity: 1.000000" transform="translate(795.355200,560.466250)scale(0.120000)">
<use xlink:href="#c_3dcfa38a02242cb63ec6726c6e70be7a"/>
</g>
</g>
</g>
<g id="xtick13">
<g id="line2d67">
<g ><use style="fill: none; stroke: #000000; stroke-width: 0.500000; stroke-linejoin: round; stroke-linecap: butt;  opacity: 1.000000" xlink:href="#m30e32995789d870ad79a2e54c91cf9c6" x="857.400589" y="547.560000"/>
</g></g>
<g id="line2d68">
<g ><use style="fill: none; stroke: #000000; stroke-width: 0.500000; stroke-linejoin: round; stroke-linecap: butt;  opacity: 1.000000" xlink:href="#m9281cae24120827b11d5ea8a7ad3e96b" x="857.400589" y="60.840000"/>
</g></g>
<g id="text28">
<g style="fill: #000000; opacity: 1.000000" transform="translate(854.213089,560.310000)scale(0.120000)">
<use xlink:href="#c_a0416418d96557a09b8c1332d34883ba"/>
</g>
</g>
</g>
<g id="xtick14">
<g id="line2d69">
<g ><use style="fill: none; stroke: #000000; stroke-width: 0.500000; stroke-linejoin: round; stroke-linecap: butt;  opacity: 1.000000" xlink:href="#m30e32995789d870ad79a2e54c91cf9c6" x="916.570979" y="547.560000"/>
</g></g>
<g id="line2d70">
<g ><use style="fill: none; stroke: #000000; stroke-width: 0.500000; stroke-linejoin: round; stroke-linecap: butt;  opacity: 1.000000" xlink:href="#m9281cae24120827b11d5ea8a7ad3e96b" x="916.570979" y="60.840000"/>
</g></g>
<g id="text29">
<g style="fill: #000000; opacity: 1.000000" transform="translate(913.735041,560.310000)scale(0.120000)">
<use xlink:href="#c_1260a2df50f305f3db244e29828f968e"/>
</g>
</g>
</g>
<g id="xtick15">
<g id="line2d71">
<g ><use style="fill: none; stroke: #000000; stroke-width: 0.500000; stroke-linejoin: round; stroke-linecap: butt;  opacity: 1.000000" xlink:href="#m30e32995789d870ad79a2e54c91cf9c6" x="975.741368" y="547.560000"/>
</g></g>
<g id="line2d72">
<g ><use style="fill: none; stroke: #000000; stroke-width: 0.500000; stroke-linejoin: round; stroke-linecap: butt;  opacity: 1.000000" xlink:href="#m9281cae24120827b11d5ea8a7ad3e96b" x="975.741368" y="60.840000"/>
</g></g>
<g id="text30">
<g style="fill: #000000; opacity: 1.000000" transform="translate(972.725743,560.466250)scale(0.120000)">
<use xlink:href="#c_cc8d6d580d1b10c8632f7a42cd53db8a"/>
</g>
</g>
</g>
<g id="xtick16">
<g id="line2d73">
<g ><use style="fill: none; stroke: #000000; stroke-width: 0.500000; stroke-linejoin: round; stroke-linecap: butt;  opacity: 1.000000" xlink:href="#m30e32995789d870ad79a2e54c91cf9c6" x="1034.911758" y="547.560000"/>
</g></g>
<g id="line2d74">
<g ><use style="fill: none; stroke: #000000; stroke-width: 0.500000; stroke-linejoin: round; stroke-linecap: butt;  opacity: 1.000000" xlink:href="#m9281cae24120827b11d5ea8a7ad3e96b" x="1034.911758" y="60.840000"/>
</g></g>
<g id="text31">
<g style="fill: #000000; opacity: 1.000000" transform="translate(1032.099258,560.310000)scale(0.120000)">
<use xlink:href="#c_956f18cfdaf972f35a6c2b4aaac2532b"/>
</g>
</g>
</g>
</g>
<g id="matplotlib.axis4">
<g id="ytick8">
<g id="line2d75">
<g ><use style="fill: none; stroke: #000000; stroke-width: 0.500000; stroke-linejoin: round; stroke-linecap: butt;  opacity: 1.000000" xlink:href="#m3400efa6b1638b3fea9e19e898273957" x="630.981818" y="492.103341"/>
</g></g>
<g id="line2d76">
<g ><use style="fill: none; stroke: #000000; stroke-width: 0.500000; stroke-linejoin: round; stroke-linecap: butt;  opacity: 1.000000" xlink:href="#m20b58b2501143cb5e0a5e8f1ef6f1643" x="1036.800000" y="492.103341"/>
</g></g>
<g id="text32">
<g style="fill: #000000; opacity: 1.000000" transform="translate(594.450568,496.470528)scale(0.120000)">
<use xlink:href="#c_7a2040fe3b94fcd41d0a72c84e93b115"/>
<use xlink:href="#c_ed3e21196fb739f392806f09ca0594ef" x="63.623047"/>
<use xlink:href="#c_cd96f817f3cab988d24a2b49a5577fe6" x="95.410156"/>
<use xlink:href="#c_cc8d6d580d1b10c8632f7a42cd53db8a" x="159.033203"/>
<use xlink:href="#c_1260a2df50f305f3db244e29828f968e" x="222.656250"/>
</g>
</g>
</g>
<g id="ytick9">
<g id="line2d77">
<g ><use style="fill: none; stroke: #000000; stroke-width: 0.500000; stroke-linejoin: round; stroke-linecap: butt;  opacity: 1.000000" xlink:href="#m3400efa6b1638b3fea9e19e898273957" x="630.981818" y="431.428373"/>
</g></g>
<g id="line2d78">
<g ><use style="fill: none; stroke: #000000; stroke-width: 0.500000; stroke-linejoin: round; stroke-linecap: butt;  opacity: 1.000000" xlink:href="#m20b58b2501143cb5e0a5e8f1ef6f1643" x="1036.800000" y="431.428373"/>
</g></g>
<g id="text33">
<g style="fill: #000000; opacity: 1.000000" transform="translate(594.200568,435.795560)scale(0.120000)">
<use xlink:href="#c_7a2040fe3b94fcd41d0a72c84e93b115"/>
<use xlink:href="#c_ed3e21196fb739f392806f09ca0594ef" x="63.623047"/>
<use xlink:href="#c_cd96f817f3cab988d24a2b49a5577fe6" x="95.410156"/>
<use xlink:href="#c_956f18cfdaf972f35a6c2b4aaac2532b" x="159.033203"/>
<use xlink:href="#c_7a2040fe3b94fcd41d0a72c84e93b115" x="222.656250"/>
</g>
</g>
</g>
<g id="ytick10">
<g id="line2d79">
<g ><use style="fill: none; stroke: #000000; stroke-width: 0.500000; stroke-linejoin: round; stroke-linecap: butt;  opacity: 1.000000" xlink:href="#m3400efa6b1638b3fea9e19e898273957" x="630.981818" y="370.753405"/>
</g></g>
<g id="line2d80">
<g ><use style="fill: none; stroke: #000000; stroke-width: 0.500000; stroke-linejoin: round; stroke-linecap: butt;  opacity: 1.000000" xlink:href="#m20b58b2501143cb5e0a5e8f1ef6f1643" x="1036.800000" y="370.753405"/>
</g></g>
<g id="text34">
<g style="fill: #000000; opacity: 1.000000" transform="translate(594.450568,375.120592)scale(0.120000)">
<use xlink:href="#c_7a2040fe3b94fcd41d0a72c84e93b115"/>
<use xlink:href="#c_ed3e21196fb739f392806f09ca0594ef" x="63.623047"/>
<use xlink:href="#c_cd96f817f3cab988d24a2b49a5577fe6" x="95.410156"/>
<use xlink:href="#c_956f18cfdaf972f35a6c2b4aaac2532b" x="159.033203"/>
<use xlink:href="#c_1260a2df50f305f3db244e29828f968e" x="222.656250"/>
</g>
</g>
</g>
<g id="ytick11">
<g id="line2d81">
<g ><use style="fill: none; stroke: #000000; stroke-width: 0.500000; stroke-linejoin: round; stroke-linecap: butt;  opacity: 1.000000" xlink:href="#m3400efa6b1638b3fea9e19e898273957" x="630.981818" y="310.078437"/>
</g></g>
<g id="line2d82">
<g ><use style="fill: none; stroke: #000000; stroke-width: 0.500000; stroke-linejoin: round; stroke-linecap: butt;  opacity: 1.000000" xlink:href="#m20b58b2501143cb5e0a5e8f1ef6f1643" x="1036.800000" y="310.078437"/>
</g></g>
<g id="text35">
<g style="fill: #000000; opacity: 1.000000" transform="translate(594.200568,314.445625)scale(0.120000)">
<use xlink:href="#c_7a2040fe3b94fcd41d0a72c84e93b115"/>
<use xlink:href="#c_ed3e21196fb739f392806f09ca0594ef" x="63.623047"/>
<use xlink:href="#c_cd96f817f3cab988d24a2b49a5577fe6" x="95.410156"/>
<use xlink:href="#c_bef35738d52871942e50b9de9b122bab" x="159.033203"/>
<use xlink:href="#c_7a2040fe3b94fcd41d0a72c84e93b115" x="222.656250"/>
</g>
</g>
</g>
<g id="ytick12">
<g id="line2d83">
<g ><use style="fill: none; stroke: #000000; stroke-width: 0.500000; stroke-linejoin: round; stroke-linecap: butt;  opacity: 1.000000" xlink:href="#m3400efa6b1638b3fea9e19e898273957" x="630.981818" y="249.403469"/>
</g></g>
<g id="line2d84">
<g ><use style="fill: none; stroke: #000000; stroke-width: 0.500000; stroke-linejoin: round; stroke-linecap: butt;  opacity: 1.000000" xlink:href="#m20b58b2501143cb5e0a5e8f1ef6f1643" x="1036.800000" y="249.403469"/>
</g></g>
<g id="text36">
<g style="fill: #000000; opacity: 1.000000" transform="translate(594.450568,253.770657)scale(0.120000)">
<use xlink:href="#c_7a2040fe3b94fcd41d0a72c84e93b115"/>
<use xlink:href="#c_ed3e21196fb739f392806f09ca0594ef" x="63.623047"/>
<use xlink:href="#c_cd96f817f3cab988d24a2b49a5577fe6" x="95.410156"/>
<use xlink:href="#c_bef35738d52871942e50b9de9b122bab" x="159.033203"/>
<use xlink:href="#c_1260a2df50f305f3db244e29828f968e" x="222.656250"/>
</g>
</g>
</g>
<g id="ytick13">
<g id="line2d85">
<g ><use style="fill: none; stroke: #000000; stroke-width: 0.500000; stroke-linejoin: round; stroke-linecap: butt;  opacity: 1.000000" xlink:href="#m3400efa6b1638b3fea9e19e898273957" x="630.981818" y="188.728501"/>
</g></g>
<g id="line2d86">
<g ><use style="fill: none; stroke: #000000; stroke-width: 0.500000; stroke-linejoin: round; stroke-linecap: butt;  opacity: 1.000000" xlink:href="#m20b58b2501143cb5e0a5e8f1ef6f1643" x="1036.800000" y="188.728501"/>
</g></g>
<g id="text37">
<g style="fill: #000000; opacity: 1.000000" transform="translate(594.200568,193.095689)scale(0.120000)">
<use xlink:href="#c_7a2040fe3b94fcd41d0a72c84e93b115"/>
<use xlink:href="#c_ed3e21196fb739f392806f09ca0594ef" x="63.623047"/>
<use xlink:href="#c_cd96f817f3cab988d24a2b49a5577fe6" x="95.410156"/>
<use xlink:href="#c_cd96f817f3cab988d24a2b49a5577fe6" x="159.033203"/>
<use xlink:href="#c_7a2040fe3b94fcd41d0a72c84e93b115" x="222.656250"/>
</g>
</g>
</g>
<g id="ytick14">
<g id="line2d87">
<g ><use style="fill: none; stroke: #000000; stroke-width: 0.500000; stroke-linejoin: round; stroke-linecap: butt;  opacity: 1.000000" xlink:href="#m3400efa6b1638b3fea9e19e898273957" x="630.981818" y="128.053534"/>
</g></g>
<g id="line2d88">
<g ><use style="fill: none; stroke: #000000; stroke-width: 0.500000; stroke-linejoin: round; stroke-linecap: butt;  opacity: 1.000000" xlink:href="#m20b58b2501143cb5e0a5e8f1ef6f1643" x="1036.800000" y="128.053534"/>
</g></g>
<g id="text38">
<g style="fill: #000000; opacity: 1.000000" transform="translate(594.450568,132.420721)scale(0.120000)">
<use xlink:href="#c_7a2040fe3b94fcd41d0a72c84e93b115"/>
<use xlink:href="#c_ed3e21196fb739f392806f09ca0594ef" x="63.623047"/>
<use xlink:href="#c_cd96f817f3cab988d24a2b49a5577fe6" x="95.410156"/>
<use xlink:href="#c_cd96f817f3cab988d24a2b49a5577fe6" x="159.033203"/>
<use xlink:href="#c_1260a2df50f305f3db244e29828f968e" x="222.656250"/>
</g>
</g>
</g>
<g id="ytick15">
<g id="line2d89">
<g ><use style="fill: none; stroke: #000000; stroke-width: 0.500000; stroke-linejoin: round; stroke-linecap: butt;  opacity: 1.000000" xlink:href="#m3400efa6b1638b3fea9e19e898273957" x="630.981818" y="67.378566"/>
</g></g>
<g id="line2d90">
<g ><use style="fill: none; stroke: #000000; stroke-width: 0.500000; stroke-linejoin: round; stroke-linecap: butt;  opacity: 1.000000" xlink:href="#m20b58b2501143cb5e0a5e8f1ef6f1643" x="1036.800000" y="67.378566"/>
</g></g>
<g id="text39">
<g style="fill: #000000; opacity: 1.000000" transform="translate(594.716193,71.745753)scale(0.120000)">
<use xlink:href="#c_42baa63129a918535c52adb20d687ea7"/>
<use xlink:href="#c_ed3e21196fb739f392806f09ca0594ef" x="63.623047"/>
<use xlink:href="#c_7a2040fe3b94fcd41d0a72c84e93b115" x="95.410156"/>
<use xlink:href="#c_7a2040fe3b94fcd41d0a72c84e93b115" x="159.033203"/>
<use xlink:href="#c_7a2040fe3b94fcd41d0a72c84e93b115" x="222.656250"/>
</g>
</g>
</g>
</g>
<g id="patch10">
<path style="fill: none; stroke: #000000; stroke-width: 1.000000; stroke-linejoin: round; stroke-linecap: square;  opacity: 1.000000"  d="M630.981818 60.840000L1036.800000 60.840000"/>
</g>
<g id="patch11">
<path style="fill: none; stroke: #000000; stroke-width: 1.000000; stroke-linejoin: round; stroke-linecap: square;  opacity: 1.000000"  d="M1036.800000 547.560000L1036.800000 60.840000"/>
</g>
<g id="patch12">
<path style="fill: none; stroke: #000000; stroke-width: 1.000000; stroke-linejoin: round; stroke-linecap: square;  opacity: 1.000000"  d="M630.981818 547.560000L1036.800000 547.560000"/>
</g>
<g id="patch13">
<path style="fill: none; stroke: #000000; stroke-width: 1.000000; stroke-linejoin: round; stroke-linecap: square;  opacity: 1.000000"  d="M630.981818 547.560000L630.981818 60.840000"/>
</g>
<g id="text40">
<defs>
<path id="c_a469f8ee191679fe73f3b765bd271597" d="M64.406250 -67.281250l0.000000 10.390625q-4.984375 -4.640625 -10.625000 -6.921875q-5.640625 -2.296875 -11.984375 -2.296875q-12.500000 0.000000 -19.140625 7.640625q-6.640625 7.640625 -6.640625 22.093750q0.000000 14.406250 6.640625 22.046875q6.640625 7.640625 19.140625 7.640625q6.343750 0.000000 11.984375 -2.296875q5.640625 -2.296875 10.625000 -6.937500l0.000000 10.312500q-5.171875 3.515625 -10.968750 5.281250q-5.781250 1.750000 -12.218750 1.750000q-16.562500 0.000000 -26.093750 -10.125000q-9.515625 -10.140625 -9.515625 -27.671875q0.000000 -17.578125 9.515625 -27.703125q9.531250 -10.140625 26.093750 -10.140625q6.531250 0.000000 12.312500 1.734375q5.796875 1.734375 10.875000 5.203125"/>
<path id="c_fabc000b0fb83f456ee9f092ad635e20" d="M9.812500 -72.906250l13.281250 0.000000l32.328125 60.984375l0.000000 -60.984375l9.562500 0.000000l0.000000 72.906250l-13.281250 0.000000l-32.312500 -60.984375l0.000000 60.984375l-9.578125 0.000000z"/>
</defs>
<g style="fill: #000000; opacity: 1.000000" transform="translate(630.914347,52.933750)scale(0.144000)">
<use xlink:href="#c_a469f8ee191679fe73f3b765bd271597"/>
<use xlink:href="#c_f05dd90d41f04bb96ef1ca503cc2044b" x="69.824219"/>
<use xlink:href="#c_6ec8d5749226675394676a5d2a3b468b" x="131.005859"/>
<use xlink:href="#c_6ec8d5749226675394676a5d2a3b468b" x="170.369141"/>
<use xlink:href="#c_0bce5afba2dc6b9024b26277c38ad8e8" x="209.232422"/>
<use xlink:href="#c_5099edb83619131346ae654950954dea" x="270.755859"/>
<use xlink:href="#c_01d93a582460e35a7945ca50d148ffeb" x="298.539062"/>
<use xlink:href="#c_0f8c41144cfbf448378cb6fd1cc8e549" x="359.818359"/>
<use xlink:href="#c_6a63bda47b2f3da1cec6aadd80692cfe" x="399.027344"/>
<use xlink:href="#c_f05dd90d41f04bb96ef1ca503cc2044b" x="426.810547"/>
<use xlink:href="#c_fe791a90f5471e2ab20a5ed41a7fa451" x="487.992188"/>
<use xlink:href="#c_d41d8cd98f00b204e9800998ecf8427e" x="551.371094"/>
<use xlink:href="#c_f05dd90d41f04bb96ef1ca503cc2044b" x="583.158203"/>
<use xlink:href="#c_73b12fe3945075d29fe0cc9a468fa31e" x="644.339844"/>
<use xlink:href="#c_d41d8cd98f00b204e9800998ecf8427e" x="679.544922"/>
<use xlink:href="#c_fabc000b0fb83f456ee9f092ad635e20" x="711.332031"/>
<use xlink:href="#c_d41d8cd98f00b204e9800998ecf8427e" x="786.136719"/>
<use xlink:href="#c_74d54c94aa871ec39e2bc6697dde6c00" x="817.923828"/>
<use xlink:href="#c_6a63bda47b2f3da1cec6aadd80692cfe" x="881.302734"/>
<use xlink:href="#c_e3864de5dabf2f8dd9eee74726882ec1" x="909.085937"/>
<use xlink:href="#c_74d54c94aa871ec39e2bc6697dde6c00" x="972.562500"/>
<use xlink:href="#c_0bce5afba2dc6b9024b26277c38ad8e8" x="1035.941406"/>
<use xlink:href="#c_8e0810ad13fe20a2a87a2619799b154d" x="1097.464844"/>
<use xlink:href="#c_0f8c41144cfbf448378cb6fd1cc8e549" x="1149.564453"/>
<use xlink:href="#c_d41d8cd98f00b204e9800998ecf8427e" x="1188.773437"/>
<use xlink:href="#c_73b12fe3945075d29fe0cc9a468fa31e" x="1220.560547"/>
<use xlink:href="#c_6ec8d5749226675394676a5d2a3b468b" x="1255.765625"/>
<use xlink:href="#c_0bce5afba2dc6b9024b26277c38ad8e8" x="1294.628906"/>
<use xlink:href="#c_a66ecc39892414b9ca9362e0fffdc75b" x="1356.152344"/>
<use xlink:href="#c_c438d87e693443c2861ebd6359e6491e" x="1419.628906"/>
<use xlink:href="#c_0bce5afba2dc6b9024b26277c38ad8e8" x="1483.007812"/>
<use xlink:href="#c_fe791a90f5471e2ab20a5ed41a7fa451" x="1544.531250"/>
<use xlink:href="#c_d650c37394b681142a10dfc54356d478" x="1607.910156"/>
<use xlink:href="#c_6a63bda47b2f3da1cec6aadd80692cfe" x="1662.890625"/>
<use xlink:href="#c_0bce5afba2dc6b9024b26277c38ad8e8" x="1690.673828"/>
<use xlink:href="#c_8e0810ad13fe20a2a87a2619799b154d" x="1752.197266"/>
<use xlink:href="#c_d41d8cd98f00b204e9800998ecf8427e" x="1804.296875"/>
<use xlink:href="#c_0f8c41144cfbf448378cb6fd1cc8e549" x="1836.083984"/>
<use xlink:href="#c_f05dd90d41f04bb96ef1ca503cc2044b" x="1875.292969"/>
<use xlink:href="#c_d41d8cd98f00b204e9800998ecf8427e" x="1936.474609"/>
<use xlink:href="#c_518d586bee075aa0153eaebfcb5ab11f" x="1968.261719"/>
<use xlink:href="#c_b672e4bee30772019085dff1098f516d" x="2028.564453"/>
<use xlink:href="#c_ff9441f72805bc441fcb0bfe0d774f13" x="2092.041016"/>
<use xlink:href="#c_d41d8cd98f00b204e9800998ecf8427e" x="2169.042969"/>
<use xlink:href="#c_f05dd90d41f04bb96ef1ca503cc2044b" x="2200.830078"/>
<use xlink:href="#c_73b12fe3945075d29fe0cc9a468fa31e" x="2262.011719"/>
<use xlink:href="#c_d41d8cd98f00b204e9800998ecf8427e" x="2297.216797"/>
<use xlink:href="#c_73b12fe3945075d29fe0cc9a468fa31e" x="2329.003906"/>
<use xlink:href="#c_6a63bda47b2f3da1cec6aadd80692cfe" x="2364.208984"/>
<use xlink:href="#c_6ec8d5749226675394676a5d2a3b468b" x="2391.992188"/>
<use xlink:href="#c_8e0810ad13fe20a2a87a2619799b154d" x="2433.105469"/>
<use xlink:href="#c_0f8c41144cfbf448378cb6fd1cc8e549" x="2485.205078"/>
<use xlink:href="#c_d41d8cd98f00b204e9800998ecf8427e" x="2524.414063"/>
<use xlink:href="#c_c48ceabac27bf136feba2f4bf2716ab6" x="2556.201172"/>
<use xlink:href="#c_6a63bda47b2f3da1cec6aadd80692cfe" x="2615.380859"/>
<use xlink:href="#c_d821beae607506e87470f334d9ff47af" x="2643.164063"/>
<use xlink:href="#c_0bce5afba2dc6b9024b26277c38ad8e8" x="2706.640625"/>
<use xlink:href="#c_f05dd90d41f04bb96ef1ca503cc2044b" x="2768.164063"/>
</g>
</g>
<g id="legend2">
<g id="patch14">
<path style="fill: #4d4d4d; stroke: #4d4d4d; stroke-width: 1.000000; stroke-linejoin: round; stroke-linecap: square;  opacity: 1.000000"  d="M757.056875 542.360000L1031.600000 542.360000L1031.600000 390.858750
L757.056875 390.858750L757.056875 542.360000z"/>
</g>
<g id="patch15">
<path style="fill: #ffffff; stroke: #000000; stroke-width: 1.000000; stroke-linejoin: round; stroke-linecap: square;  opacity: 1.000000"  d="M755.056875 540.360000L1029.600000 540.360000L1029.600000 388.858750
L755.056875 388.858750L755.056875 540.360000z"/>
</g>
<g id="line2d91">
<path style="fill: none; stroke: #0000ff; stroke-width: 1.000000; stroke-linejoin: round; stroke-linecap: square;  opacity: 1.000000"  d="M765.136875 400.219375L785.296875 400.219375"/>
</g>
<g id="line2d92">
</g>
<g id="text41">
<g style="fill: #000000; opacity: 1.000000" transform="translate(801.136875,405.259375)scale(0.144000)">
<use xlink:href="#c_425fd1cbcd899bef0a79975ae4756bf8"/>
<use xlink:href="#c_01d93a582460e35a7945ca50d148ffeb" x="68.603516"/>
<use xlink:href="#c_01d93a582460e35a7945ca50d148ffeb" x="129.882812"/>
<use xlink:href="#c_d821beae607506e87470f334d9ff47af" x="191.162109"/>
<use xlink:href="#c_0bce5afba2dc6b9024b26277c38ad8e8" x="254.638672"/>
<use xlink:href="#c_6ec8d5749226675394676a5d2a3b468b" x="316.162109"/>
<use xlink:href="#c_72234ddc5dcad8d05c893ef0371171da" x="357.275391"/>
<use xlink:href="#c_0bce5afba2dc6b9024b26277c38ad8e8" x="443.554688"/>
<use xlink:href="#c_6a63bda47b2f3da1cec6aadd80692cfe" x="505.078125"/>
<use xlink:href="#c_fe791a90f5471e2ab20a5ed41a7fa451" x="532.861328"/>
<use xlink:href="#c_74d54c94aa871ec39e2bc6697dde6c00" x="596.240234"/>
<use xlink:href="#c_f05dd90d41f04bb96ef1ca503cc2044b" x="659.619141"/>
<use xlink:href="#c_73b12fe3945075d29fe0cc9a468fa31e" x="720.800781"/>
<use xlink:href="#c_7aecf22c350a602b3f972fa102c17cac" x="756.005859"/>
<use xlink:href="#c_f05dd90d41f04bb96ef1ca503cc2044b" x="816.582031"/>
<use xlink:href="#c_4653c6dfde66c7610eae0911760d3490" x="877.763672"/>
<use xlink:href="#c_f15a64fcd463ef4629c48bab42cde24c" x="975.175781"/>
<use xlink:href="#c_5099edb83619131346ae654950954dea" x="1038.652344"/>
<use xlink:href="#c_0bce5afba2dc6b9024b26277c38ad8e8" x="1066.435547"/>
<use xlink:href="#c_801fe2e877fad46da27c898b407b3b54" x="1126.208984"/>
<use xlink:href="#c_9e4b30cbdf32072672ded72e9074c4c9" x="1185.388672"/>
<use xlink:href="#c_4c6532c564269b2c70b230c2e45c01e4" x="1246.472656"/>
<use xlink:href="#c_ed3e21196fb739f392806f09ca0594ef" x="1312.330078"/>
<use xlink:href="#c_4653c6dfde66c7610eae0911760d3490" x="1344.117188"/>
<use xlink:href="#c_f05dd90d41f04bb96ef1ca503cc2044b" x="1441.529297"/>
<use xlink:href="#c_c48ceabac27bf136feba2f4bf2716ab6" x="1502.710938"/>
</g>
</g>
<g id="line2d93">
<path style="fill: none; stroke: #008000; stroke-width: 1.000000; stroke-linejoin: round; stroke-linecap: square;  opacity: 1.000000"  d="M765.136875 420.966250L785.296875 420.966250"/>
</g>
<g id="line2d94">
</g>
<g id="text42">
<g style="fill: #000000; opacity: 1.000000" transform="translate(801.136875,426.006250)scale(0.144000)">
<use xlink:href="#c_01d93a582460e35a7945ca50d148ffeb"/>
<use xlink:href="#c_6ec8d5749226675394676a5d2a3b468b" x="61.279297"/>
<use xlink:href="#c_e3864de5dabf2f8dd9eee74726882ec1" x="100.642578"/>
<use xlink:href="#c_c48ceabac27bf136feba2f4bf2716ab6" x="164.119141"/>
<use xlink:href="#c_ed3f3ed3ebfbd18bcb9c012009a68ad1" x="223.298828"/>
<use xlink:href="#c_53989f37671240acb447bc6046631699" x="286.921875"/>
<use xlink:href="#c_ed3f3ed3ebfbd18bcb9c012009a68ad1" x="336.921875"/>
<use xlink:href="#c_f15a64fcd463ef4629c48bab42cde24c" x="400.544922"/>
<use xlink:href="#c_01d93a582460e35a7945ca50d148ffeb" x="464.021484"/>
<use xlink:href="#c_8e0810ad13fe20a2a87a2619799b154d" x="525.300781"/>
<use xlink:href="#c_8e0810ad13fe20a2a87a2619799b154d" x="577.400391"/>
<use xlink:href="#c_ed3e21196fb739f392806f09ca0594ef" x="629.500000"/>
<use xlink:href="#c_4653c6dfde66c7610eae0911760d3490" x="661.287109"/>
<use xlink:href="#c_f15a64fcd463ef4629c48bab42cde24c" x="758.699219"/>
<use xlink:href="#c_a0416418d96557a09b8c1332d34883ba" x="822.175781"/>
</g>
</g>
<g id="line2d95">
<path style="fill: none; stroke: #ff0000; stroke-width: 1.000000; stroke-linejoin: round; stroke-linecap: square;  opacity: 1.000000"  d="M765.136875 442.103750L785.296875 442.103750"/>
</g>
<g id="line2d96">
</g>
<g id="text43">
<g style="fill: #000000; opacity: 1.000000" transform="translate(801.136875,447.143750)scale(0.144000)">
<use xlink:href="#c_01d93a582460e35a7945ca50d148ffeb"/>
<use xlink:href="#c_6ec8d5749226675394676a5d2a3b468b" x="61.279297"/>
<use xlink:href="#c_e3864de5dabf2f8dd9eee74726882ec1" x="100.642578"/>
<use xlink:href="#c_c48ceabac27bf136feba2f4bf2716ab6" x="164.119141"/>
<use xlink:href="#c_3dcfa38a02242cb63ec6726c6e70be7a" x="223.298828"/>
<use xlink:href="#c_53989f37671240acb447bc6046631699" x="286.921875"/>
<use xlink:href="#c_ed3f3ed3ebfbd18bcb9c012009a68ad1" x="336.921875"/>
<use xlink:href="#c_f15a64fcd463ef4629c48bab42cde24c" x="400.544922"/>
<use xlink:href="#c_01d93a582460e35a7945ca50d148ffeb" x="464.021484"/>
<use xlink:href="#c_8e0810ad13fe20a2a87a2619799b154d" x="525.300781"/>
<use xlink:href="#c_8e0810ad13fe20a2a87a2619799b154d" x="577.400391"/>
<use xlink:href="#c_ed3e21196fb739f392806f09ca0594ef" x="629.500000"/>
<use xlink:href="#c_4653c6dfde66c7610eae0911760d3490" x="661.287109"/>
<use xlink:href="#c_f15a64fcd463ef4629c48bab42cde24c" x="758.699219"/>
<use xlink:href="#c_a0416418d96557a09b8c1332d34883ba" x="822.175781"/>
</g>
</g>
<g id="line2d97">
<path style="fill: none; stroke: #00bfbf; stroke-width: 1.000000; stroke-linejoin: round; stroke-linecap: square;  opacity: 1.000000"  d="M765.136875 463.241250L785.296875 463.241250"/>
</g>
<g id="line2d98">
</g>
<g id="text44">
<g style="fill: #000000; opacity: 1.000000" transform="translate(801.136875,468.281250)scale(0.144000)">
<use xlink:href="#c_01d93a582460e35a7945ca50d148ffeb"/>
<use xlink:href="#c_6ec8d5749226675394676a5d2a3b468b" x="61.279297"/>
<use xlink:href="#c_e3864de5dabf2f8dd9eee74726882ec1" x="100.642578"/>
<use xlink:href="#c_c48ceabac27bf136feba2f4bf2716ab6" x="164.119141"/>
<use xlink:href="#c_a0416418d96557a09b8c1332d34883ba" x="223.298828"/>
<use xlink:href="#c_53989f37671240acb447bc6046631699" x="286.921875"/>
<use xlink:href="#c_ed3f3ed3ebfbd18bcb9c012009a68ad1" x="336.921875"/>
<use xlink:href="#c_f15a64fcd463ef4629c48bab42cde24c" x="400.544922"/>
<use xlink:href="#c_01d93a582460e35a7945ca50d148ffeb" x="464.021484"/>
<use xlink:href="#c_8e0810ad13fe20a2a87a2619799b154d" x="525.300781"/>
<use xlink:href="#c_8e0810ad13fe20a2a87a2619799b154d" x="577.400391"/>
<use xlink:href="#c_ed3e21196fb739f392806f09ca0594ef" x="629.500000"/>
<use xlink:href="#c_4653c6dfde66c7610eae0911760d3490" x="661.287109"/>
<use xlink:href="#c_f15a64fcd463ef4629c48bab42cde24c" x="758.699219"/>
<use xlink:href="#c_a0416418d96557a09b8c1332d34883ba" x="822.175781"/>
</g>
</g>
<g id="line2d99">
<path style="fill: none; stroke: #bf00bf; stroke-width: 1.000000; stroke-linejoin: round; stroke-linecap: square;  opacity: 1.000000"  d="M765.136875 484.378750L785.296875 484.378750"/>
</g>
<g id="line2d100">
</g>
<g id="text45">
<g style="fill: #000000; opacity: 1.000000" transform="translate(801.136875,489.418750)scale(0.144000)">
<use xlink:href="#c_01d93a582460e35a7945ca50d148ffeb"/>
<use xlink:href="#c_6ec8d5749226675394676a5d2a3b468b" x="61.279297"/>
<use xlink:href="#c_e3864de5dabf2f8dd9eee74726882ec1" x="100.642578"/>
<use xlink:href="#c_c48ceabac27bf136feba2f4bf2716ab6" x="164.119141"/>
<use xlink:href="#c_1260a2df50f305f3db244e29828f968e" x="223.298828"/>
<use xlink:href="#c_7b26b13f539f13a4c64eef23b6952d29" x="286.921875"/>
<use xlink:href="#c_42baa63129a918535c52adb20d687ea7" x="323.005859"/>
<use xlink:href="#c_f15a64fcd463ef4629c48bab42cde24c" x="386.628906"/>
<use xlink:href="#c_01d93a582460e35a7945ca50d148ffeb" x="450.105469"/>
<use xlink:href="#c_8e0810ad13fe20a2a87a2619799b154d" x="511.384766"/>
<use xlink:href="#c_8e0810ad13fe20a2a87a2619799b154d" x="563.484375"/>
<use xlink:href="#c_53989f37671240acb447bc6046631699" x="615.583984"/>
<use xlink:href="#c_d650c37394b681142a10dfc54356d478" x="665.583984"/>
<use xlink:href="#c_5cc9741494d2ad8f9764e03ae145569f" x="720.564453"/>
<use xlink:href="#c_6ec8d5749226675394676a5d2a3b468b" x="784.041016"/>
<use xlink:href="#c_ed3e21196fb739f392806f09ca0594ef" x="816.029297"/>
<use xlink:href="#c_4653c6dfde66c7610eae0911760d3490" x="847.816406"/>
<use xlink:href="#c_f15a64fcd463ef4629c48bab42cde24c" x="945.228516"/>
<use xlink:href="#c_a0416418d96557a09b8c1332d34883ba" x="1008.705078"/>
</g>
</g>
<g id="line2d101">
<path style="fill: none; stroke: #bfbf00; stroke-width: 1.000000; stroke-linejoin: round; stroke-linecap: square;  opacity: 1.000000"  d="M765.136875 505.516250L785.296875 505.516250"/>
</g>
<g id="line2d102">
</g>
<g id="text46">
<g style="fill: #000000; opacity: 1.000000" transform="translate(801.136875,510.556250)scale(0.144000)">
<use xlink:href="#c_01d93a582460e35a7945ca50d148ffeb"/>
<use xlink:href="#c_6ec8d5749226675394676a5d2a3b468b" x="61.279297"/>
<use xlink:href="#c_e3864de5dabf2f8dd9eee74726882ec1" x="100.642578"/>
<use xlink:href="#c_c48ceabac27bf136feba2f4bf2716ab6" x="164.119141"/>
<use xlink:href="#c_cc8d6d580d1b10c8632f7a42cd53db8a" x="223.298828"/>
<use xlink:href="#c_53989f37671240acb447bc6046631699" x="286.921875"/>
<use xlink:href="#c_42baa63129a918535c52adb20d687ea7" x="336.921875"/>
<use xlink:href="#c_f15a64fcd463ef4629c48bab42cde24c" x="400.544922"/>
<use xlink:href="#c_01d93a582460e35a7945ca50d148ffeb" x="464.021484"/>
<use xlink:href="#c_8e0810ad13fe20a2a87a2619799b154d" x="525.300781"/>
<use xlink:href="#c_8e0810ad13fe20a2a87a2619799b154d" x="577.400391"/>
<use xlink:href="#c_7b26b13f539f13a4c64eef23b6952d29" x="629.500000"/>
<use xlink:href="#c_c48ceabac27bf136feba2f4bf2716ab6" x="662.958984"/>
<use xlink:href="#c_5cc9741494d2ad8f9764e03ae145569f" x="722.138672"/>
<use xlink:href="#c_6ec8d5749226675394676a5d2a3b468b" x="785.615234"/>
<use xlink:href="#c_ed3e21196fb739f392806f09ca0594ef" x="817.603516"/>
<use xlink:href="#c_4653c6dfde66c7610eae0911760d3490" x="849.390625"/>
<use xlink:href="#c_f15a64fcd463ef4629c48bab42cde24c" x="946.802734"/>
<use xlink:href="#c_a0416418d96557a09b8c1332d34883ba" x="1010.279297"/>
</g>
</g>
<g id="line2d103">
<path style="fill: none; stroke: #000000; stroke-width: 1.000000; stroke-linejoin: round; stroke-linecap: square;  opacity: 1.000000"  d="M765.136875 526.653750L785.296875 526.653750"/>
</g>
<g id="line2d104">
</g>
<g id="text47">
<g style="fill: #000000; opacity: 1.000000" transform="translate(801.136875,531.693750)scale(0.144000)">
<use xlink:href="#c_01d93a582460e35a7945ca50d148ffeb"/>
<use xlink:href="#c_6ec8d5749226675394676a5d2a3b468b" x="61.279297"/>
<use xlink:href="#c_e3864de5dabf2f8dd9eee74726882ec1" x="100.642578"/>
<use xlink:href="#c_c48ceabac27bf136feba2f4bf2716ab6" x="164.119141"/>
<use xlink:href="#c_956f18cfdaf972f35a6c2b4aaac2532b" x="223.298828"/>
<use xlink:href="#c_7b26b13f539f13a4c64eef23b6952d29" x="286.921875"/>
<use xlink:href="#c_4653c6dfde66c7610eae0911760d3490" x="323.005859"/>
<use xlink:href="#c_0bce5afba2dc6b9024b26277c38ad8e8" x="420.417969"/>
<use xlink:href="#c_fe791a90f5471e2ab20a5ed41a7fa451" x="481.941406"/>
<use xlink:href="#c_d650c37394b681142a10dfc54356d478" x="545.320312"/>
<use xlink:href="#c_f05dd90d41f04bb96ef1ca503cc2044b" x="600.300781"/>
<use xlink:href="#c_d821beae607506e87470f334d9ff47af" x="661.482422"/>
<use xlink:href="#c_0bce5afba2dc6b9024b26277c38ad8e8" x="724.958984"/>
<use xlink:href="#c_6ec8d5749226675394676a5d2a3b468b" x="786.482422"/>
<use xlink:href="#c_7b26b13f539f13a4c64eef23b6952d29" x="821.220703"/>
<use xlink:href="#c_ed3f3ed3ebfbd18bcb9c012009a68ad1" x="857.304687"/>
<use xlink:href="#c_f15a64fcd463ef4629c48bab42cde24c" x="920.927734"/>
<use xlink:href="#c_01d93a582460e35a7945ca50d148ffeb" x="984.404297"/>
<use xlink:href="#c_8e0810ad13fe20a2a87a2619799b154d" x="1045.683594"/>
<use xlink:href="#c_8e0810ad13fe20a2a87a2619799b154d" x="1097.783203"/>
<use xlink:href="#c_ed3e21196fb739f392806f09ca0594ef" x="1149.882812"/>
<use xlink:href="#c_4653c6dfde66c7610eae0911760d3490" x="1181.669922"/>
<use xlink:href="#c_f15a64fcd463ef4629c48bab42cde24c" x="1279.082031"/>
<use xlink:href="#c_a0416418d96557a09b8c1332d34883ba" x="1342.558594"/>
</g>
</g>
</g>
</g>
</g>
</svg>
